<?xml version="1.0" encoding="utf-8"?>
<!-- Generator: Adobe Illustrator 18.1.1, SVG Export Plug-In . SVG Version: 6.00 Build 0)  -->
<svg version="1.1" id="Layer_1" xmlns="http://www.w3.org/2000/svg" xmlns:xlink="http://www.w3.org/1999/xlink" x="0px" y="0px"
	 viewBox="0 0 100 100" enable-background="new 0 0 100 100" xml:space="preserve">
<g>
	<polygon fill="#69788D" points="70.3,79.6 50,85 29.7,79.6 25,28.8 75,28.8 	"/>
	<polygon fill="#7B8A9F" points="50,32.9 50,80.7 50,80.7 66.5,76.2 70.3,32.9 	"/>
	<g>
		<g>
			<polygon fill="#26354A" points="38.5,21.3 38.5,18.3 42.9,18.3 42.9,15 35.2,15 35.2,24.3 42.9,24.3 42.9,21.3 			"/>
			<path fill="#26354A" d="M50.8,18.3h3.1V15h-7.7c0,0,0,1.7,0,3.3c1,1,1.6,1.5,3.1,3c-0.9,0-3.1,0-3.1,0v3h7.7v-3L50.8,18.3z"/>
			<path fill="#26354A" d="M61.8,18.3h3.1V15h-7.7c0,0,0,1.7,0,3.3c1,1,1.6,1.5,3.1,3c-0.9,0-3.1,0-3.1,0v3h7.7v-3L61.8,18.3z"/>
		</g>
	</g>
	<g>
		<polygon fill="#FFFFFF" points="50,45.6 35.4,51.6 35.9,57.6 50,51.6 64.9,45.2 65.6,39.1 		"/>
		<linearGradient id="SVGID_1_" gradientUnits="userSpaceOnUse" x1="42.7124" y1="57.63" x2="42.7124" y2="45.5806">
			<stop  offset="0.3865" style="stop-color:#D0D2D3;stop-opacity:0"/>
			<stop  offset="1" style="stop-color:#D0D2D3"/>
		</linearGradient>
		<polygon fill="url(#SVGID_1_)" points="35.4,51.6 35.9,57.6 50,51.6 50,45.6 		"/>
		<linearGradient id="SVGID_2_" gradientUnits="userSpaceOnUse" x1="57.7675" y1="51.6202" x2="57.7675" y2="39.0954">
			<stop  offset="0.3865" style="stop-color:#D0D2D3;stop-opacity:0"/>
			<stop  offset="1" style="stop-color:#D0D2D3"/>
		</linearGradient>
		<polygon fill="url(#SVGID_2_)" points="65.6,39.1 50,45.6 50,51.6 64.9,45.2 		"/>
		<linearGradient id="SVGID_3_" gradientUnits="userSpaceOnUse" x1="35.4656" y1="63.0044" x2="64.4053" y2="63.0044">
			<stop  offset="0" style="stop-color:#E7E6E5"/>
			<stop  offset="1" style="stop-color:#FFFFFF"/>
		</linearGradient>
		<polygon fill="url(#SVGID_3_)" points="35.5,51.6 35.9,57.6 57.5,57.7 57,65.7 49.9,67.7 43.1,66 42.7,61 36.4,61 37.2,70.6 
			50,74.4 62.8,70.7 64.4,51.6 		"/>
		<g opacity="5.000000e-002">
			<polygon fill="#231F20" points="50,51.6 35.4,51.6 35.9,57.6 50,57.7 			"/>
			<polygon fill="#231F20" points="50,67.7 49.9,67.7 43.1,66 42.7,61 36.3,61 37.2,70.6 50,74.4 			"/>
		</g>
		<linearGradient id="SVGID_4_" gradientUnits="userSpaceOnUse" x1="34.1341" y1="42.1615" x2="65.5535" y2="42.1615">
			<stop  offset="0" style="stop-color:#E7E6E5"/>
			<stop  offset="1" style="stop-color:#FFFFFF"/>
		</linearGradient>
		<polygon fill="url(#SVGID_4_)" points="34.1,39.1 65.6,39.1 64.9,45.2 34.9,45.2 		"/>
		<polygon opacity="5.000000e-002" fill="#231F20" points="50,39.1 34.1,39.1 34.9,45.2 50,45.2 		"/>
	</g>
</g>
</svg>
