<?xml version="1.0" encoding="utf-8"?>
<!-- Generator: Adobe Illustrator 18.1.1, SVG Export Plug-In . SVG Version: 6.00 Build 0)  -->
<svg version="1.1" id="Layer_1" xmlns="http://www.w3.org/2000/svg" xmlns:xlink="http://www.w3.org/1999/xlink" x="0px" y="0px"
	 viewBox="0 0 100 100" enable-background="new 0 0 100 100" xml:space="preserve">
<g>
	<g id="original-wordmark" transform="matrix(0.85101532,0,0,0.85101532,5.5198422,-24.472693)">
		<path id="path4" fill="#26354A" d="M20.1,103.2V84.4h1v3c0.1-0.1,0.2-0.3,0.3-0.4
			c0.8-1.8,2.6-2.9,4.6-2.9c2.3-0.1,4.2,0.8,5.3,2.9c1.4,2.6,1.5,5.7,0.2,8.4c-1,2.3-3.6,3.5-6.3,3c-1.7-0.1-3.3-1.2-4.1-2.7v7.5
			H20.1z M21.1,91c0.1,0.9,0.1,1.6,0.2,2.2c0.4,2.5,1.9,4,4.2,4.3c2.3,0.4,4.5-0.9,5.3-3c0.9-2.2,0.8-4.6-0.2-6.7
			c-0.9-1.9-2.9-3-4.9-2.7c-1.9,0.1-3.6,1.5-4.1,3.4C21.4,89.3,21.3,90.2,21.1,91z"/>
		<path id="path6" fill="#26354A" d="M53.3,93.6c-0.3,2.7-2.6,4.8-5.4,4.9
			c-4.3,0.2-6.3-2.6-6.6-5.9c-0.2-1.8,0.1-3.6,0.8-5.2c1.1-2.3,3.5-3.6,6-3.2c2.4,0.2,4.4,1.9,4.9,4.2c0.2,1,0.4,2.1,0.5,3.1H42.4
			c-0.2,3,1.4,5.3,3.6,5.9c2.8,0.7,5.2-0.5,6.1-3.2C52.3,93.5,52.7,93.4,53.3,93.6z M42.4,90.5h10c-0.1-3.2-2-5.4-4.7-5.5
			C44.7,85,42.5,87.2,42.4,90.5z"/>
		<path id="path8" fill="#26354A" d="M55.4,93.7h1c0.1,1.5,1,2.8,2.3,3.4c1.7,0.8,3.6,0.7,5.3-0.1
			c0.9-0.4,1.5-1.3,1.4-2.3c0.1-1-0.5-1.8-1.4-2.1c-1.1-0.4-2.2-0.6-3.3-1c-1.1-0.3-2.3-0.7-3.4-1.2c-1.8-0.9-1.9-4.2,0.1-5.3
			c2.1-1.2,4.6-1.2,6.8-0.1c1.3,0.7,2,2.2,1.8,3.6H65c0,0-0.1-0.1-0.1-0.1c-0.1-2.7-2.4-3.5-4.8-3.3c-0.7,0.1-1.4,0.3-2.1,0.6
			c-0.8,0.4-1.3,1.2-1.2,2.1c0,0.9,0.6,1.7,1.4,2c1.1,0.4,2.2,0.6,3.3,0.9c0.9,0.2,1.8,0.4,2.6,0.7c1.2,0.4,2.1,1.5,2.1,2.8
			c0.2,1.4-0.5,2.8-1.8,3.5c-2.3,1.3-6.1,1-7.8-0.7C55.8,96.1,55.4,94.9,55.4,93.7z"/>
		<path id="path10" fill="#26354A" d="M78.8,88.5h-0.9c0-0.1,0-0.2-0.1-0.3c0-1.4-1.1-2.6-2.5-2.9
			c-1.3-0.4-2.6-0.3-3.9,0.2c-1,0.3-1.7,1.2-1.7,2.3c0,1,0.7,1.9,1.7,2.2c1.4,0.4,2.8,0.7,4.2,1.1c0.5,0.1,0.9,0.2,1.3,0.4
			c1.8,0.6,2.7,2.6,2.1,4.4c-0.3,0.9-1,1.6-1.9,2c-2,0.9-4.2,0.9-6.2,0.1c-1.7-0.7-2.7-2.4-2.6-4.2h0.4h0.5c0.6,2.7,3.2,4.5,6,3.9
			c0.6-0.1,1.2-0.4,1.7-0.7c0.9-0.4,1.4-1.3,1.3-2.3c0-1-0.6-1.8-1.5-2.1c-1.1-0.4-2.2-0.6-3.3-1c-1.2-0.3-2.3-0.7-3.4-1.2
			c-1.7-0.9-1.9-4.2,0.1-5.3c2.1-1.2,4.7-1.3,6.9-0.1C78.3,85.7,79,87.1,78.8,88.5z"/>
		<path id="path12" fill="#26354A" d="M18.4,98.1c-0.8,0.3-1.6,0-2-0.7c-1.1-1.7-2.4-3.3-3.6-5
			l-0.5-0.7c-1.4,1.9-2.9,3.7-4.2,5.7c-0.4,0.7-1.2,1-1.9,0.7l5.4-7.2l-5-6.5c0.7-0.3,1.6,0,2,0.7c1.2,1.7,2.4,3.3,3.7,5
			c1.3-1.7,2.5-3.3,3.7-5c0.4-0.7,1.2-1,1.9-0.7L16.1,87c-0.9,1.1-1.7,2.3-2.6,3.4c-0.3,0.3-0.3,0.7-0.1,1c0,0,0,0,0.1,0.1
			C15.1,93.6,16.7,95.8,18.4,98.1z"/>
		<path id="path14" fill="#26354A" d="M41.2,84.4v1c-2.8-0.2-5.2,1.9-5.3,4.7c0,0.2,0,0.3,0,0.5
			c0,2.3,0,4.6,0,6.8c0,0.2,0,0.5,0,0.8h-1V84.4h1v2.8C37,85.2,38.9,84.4,41.2,84.4z"/>
		<path id="path16" fill="#26354A" d="M-6.5,90.8c0.1-0.7,0.2-1.4,0.4-2.2c1.2-4.3,6.1-6,9.4-3.4
			c2,1.5,2.5,3.7,2.4,6.2H-5.3c-0.2,4.4,3,7.1,7.1,5.7c1.3-0.5,2.3-1.6,2.7-3c0.2-0.7,0.6-0.8,1.2-0.6c-0.2,1.7-1.2,3.2-2.7,4.1
			c-2.5,1.4-5.5,1-7.6-1c-1-1.1-1.6-2.5-1.7-4c0-0.2-0.1-0.5-0.1-0.7C-6.5,91.6-6.5,91.2-6.5,90.8z M-5.3,90.5h10
			c-0.1-3.2-2.1-5.5-4.8-5.5C-3,85-5.2,87.2-5.3,90.5L-5.3,90.5z"/>
	</g>
	<g>
		<path fill="#B7C7E2" d="M76.1,36.7H100v23.9H76.1V36.7z"/>
		<path fill="#26354A" d="M82.4,56.6l1.8-1.1c0.4,0.6,0.7,1.2,1.4,1.2c0.7,0,1.2-0.3,1.2-1.4v-7.6h2.2v7.7c0,2.3-1.4,3.4-3.3,3.4
			C84,58.7,82.9,57.7,82.4,56.6"/>
		<path fill="#26354A" d="M90.3,56.4l1.8-1.1c0.5,0.8,1.1,1.4,2.2,1.4c0.9,0,1.5-0.5,1.5-1.1c0-0.8-0.6-1-1.6-1.5l-0.6-0.2
			c-1.6-0.7-2.7-1.6-2.7-3.4c0-1.7,1.3-3,3.3-3c1.4,0,2.5,0.5,3.2,1.8l-1.7,1.1c-0.4-0.7-0.8-1-1.4-1c-0.7,0-1.1,0.4-1.1,1
			c0,0.7,0.4,0.9,1.4,1.4l0.6,0.2c1.9,0.8,3,1.6,3,3.5c0,2-1.6,3.1-3.7,3.1C92.3,58.7,91,57.7,90.3,56.4"/>
	</g>
</g>
</svg>
