<?xml version="1.0" encoding="utf-8"?>
<!-- Generator: Adobe Illustrator 18.1.1, SVG Export Plug-In . SVG Version: 6.00 Build 0)  -->
<svg version="1.1" id="Layer_1" xmlns="http://www.w3.org/2000/svg" xmlns:xlink="http://www.w3.org/1999/xlink" x="0px" y="0px"
	 viewBox="0 0 100 100" enable-background="new 0 0 100 100" xml:space="preserve">
<g>
	<polygon fill="#69788D" points="29.6,79.6 25,28.6 75,28.6 70.4,79.6 50,85.3 	"/>
	<polygon fill="#7B8A9F" points="50,80.9 66.5,76.4 70.4,32.8 50,32.8 	"/>
	<polygon fill="#EAEAEA" points="50,51.7 41.7,51.7 41.1,45.3 50,45.3 50,39 50,39 34.3,39 34.5,40.7 36,57.9 50,57.9 	"/>
	<polygon fill="#EAEAEA" points="50,67.9 50,67.9 43,66.1 42.6,61.1 39.2,61.1 36.3,61.1 37.1,70.9 50,74.5 50,74.5 	"/>
	<path fill="#26354A" d="M29.7,14.7h3.2v3.1h2.9v-3.1h3.2v9.5h-3.2V21h-2.9v3.2h-3.2L29.7,14.7L29.7,14.7z"/>
	<path fill="#26354A" d="M43.1,17.9h-2.8v-3.2h8.8v3.2h-2.8v6.4h-3.2L43.1,17.9L43.1,17.9z"/>
	<path fill="#26354A" d="M50.5,14.7h3.3l2,3.3l2-3.3h3.3v9.5H58v-4.7l-2.2,3.4h-0.1l-2.2-3.4v4.7h-3.1V14.7z"/>
	<path fill="#26354A" d="M62.8,14.7H66v6.4h4.5v3.1h-7.7V14.7z"/>
	<polygon fill="#FFFFFF" points="50,51.7 50,57.9 57.7,57.9 57,66.1 50,67.9 50,74.5 62.8,70.9 62.9,69.8 64.4,53.4 64.5,51.7 
		62.8,51.7 	"/>
	<polygon fill="#FFFFFF" points="50,39 50,42.9 50,45.3 50,45.3 65.1,45.3 65.1,45.3 65.1,45.3 65.2,43.9 65.5,40.7 65.7,39 	"/>
</g>
</svg>
