<?xml version="1.0" encoding="utf-8"?>
<!-- Generator: Adobe Illustrator 18.1.1, SVG Export Plug-In . SVG Version: 6.00 Build 0)  -->
<svg version="1.1" id="Layer_1" xmlns="http://www.w3.org/2000/svg" xmlns:xlink="http://www.w3.org/1999/xlink" x="0px" y="0px"
	 viewBox="0 0 100 100" enable-background="new 0 0 100 100" xml:space="preserve">
<g>
	<rect x="44.4" y="45.5" fill="#79889D" width="0.7" height="13.7"/>
	<path fill="#79889D" d="M55.5,45.2c-4.1,0-7.2,3.1-7.2,7.2c0,4.1,3.1,7.2,7.2,7.2c4.1,0,7.2-3.1,7.2-7.2
		C62.7,48.3,59.6,45.2,55.5,45.2L55.5,45.2L55.5,45.2z M55.5,58.9c-3.7,0-6.5-2.8-6.5-6.5c0-3.7,2.8-6.5,6.5-6.5
		c3.7,0,6.5,2.8,6.5,6.5C61.9,56.1,59.2,58.9,55.5,58.9L55.5,58.9L55.5,58.9z"/>
	<path fill="#79889D" d="M76.3,46.5c-1.6-1.3-3.4-1.4-4.4-1.4c-2.2,0-4.6,1-5.4,3h-0.1v-2.6h-0.7v13.7h0.7v-7.9
		c0-3.4,2.1-5.5,5.6-5.5c2.1,0,3.2,0.7,3.9,1.3c1,0.9,1.7,2.5,1.7,4.8v7.2h0.7V52C78.3,49.5,77.7,47.7,76.3,46.5L76.3,46.5
		L76.3,46.5z"/>
	<rect x="82.3" y="45.5" fill="#79889D" width="0.7" height="13.7"/>
	<path fill="#79889D" d="M93.3,58.9c-3.5,0-6.5-2.6-6.5-6.5c0-1.9,0.8-3.7,1.9-4.7c1.4-1.3,2.7-1.8,4.6-1.8c2.7,0,5.1,1.5,6,4.1h0.8
		c-1.1-3.2-4-4.8-6.8-4.8c-4.2,0-7.2,3.2-7.2,7.2c0,4.3,3.2,7.2,7.2,7.2c3.3,0,5.8-1.9,6.8-4.7h-0.8C98.7,56.9,96.4,58.9,93.3,58.9
		L93.3,58.9L93.3,58.9z"/>
	<circle fill="#79889D" cx="44.8" cy="41.3" r="0.8"/>
	<circle fill="#79889D" cx="82.7" cy="41.3" r="0.8"/>
	<circle fill="#79889D" cx="17.3" cy="50" r="7.1"/>
	<path fill="#79889D" d="M31.9,37.9c0-1.4-1.1-2.5-2.5-2.5c-0.6,0-1.2,0.2-1.6,0.6c-2.9-2.2-6.6-3.5-10.5-3.5
		C7.7,32.5-0.2,40.4-0.2,50c0,9.6,7.9,17.5,17.5,17.5S34.8,59.6,34.8,50c0-3.9-1.3-7.6-3.5-10.5C31.7,39.1,31.9,38.5,31.9,37.9
		L31.9,37.9L31.9,37.9z M17.3,66.9C8,66.9,0.4,59.3,0.4,50S8,33.1,17.3,33.1c3.8,0,7.3,1.3,10.1,3.4c-0.3,0.4-0.5,0.9-0.5,1.4
		c0,1.4,1.1,2.5,2.5,2.5c0.5,0,1-0.2,1.4-0.5c2.1,2.8,3.4,6.3,3.4,10.1C34.2,59.3,26.7,66.9,17.3,66.9L17.3,66.9L17.3,66.9z"/>
</g>
</svg>
