<?xml version="1.0" encoding="utf-8"?>
<!-- Generator: Adobe Illustrator 18.1.1, SVG Export Plug-In . SVG Version: 6.00 Build 0)  -->
<svg version="1.1" id="Layer_1" xmlns="http://www.w3.org/2000/svg" xmlns:xlink="http://www.w3.org/1999/xlink" x="0px" y="0px"
	 viewBox="0 0 100 100" enable-background="new 0 0 100 100" xml:space="preserve">
<g>
	<g>
		<polygon fill="#69788D" points="29.6,79.6 25,28.6 75,28.6 70.4,79.6 50,85.3 		"/>
		<polygon fill="#7B8A9F" points="50,80.9 66.5,76.4 70.4,32.8 50,32.8 		"/>
		<polygon fill="#EAEAEA" points="50,51.7 41.7,51.7 41.1,45.3 50,45.3 50,39 50,39 34.3,39 34.5,40.7 36,57.9 50,57.9 		"/>
		<polygon fill="#EAEAEA" points="50,67.9 50,67.9 43,66.1 42.3,57.9 38.9,53.2 36,57.9 37.1,70.9 50,74.5 50,74.5 		"/>
		<polygon fill="#FFFFFF" points="50,51.7 50,57.9 57.7,57.9 57,66.1 50,67.9 50,74.5 62.8,70.9 62.9,69.8 64.4,53.4 64.5,51.7 
			62.8,51.7 		"/>
		<polygon fill="#FFFFFF" points="50,39 50,42.9 50,45.3 50,45.3 65.1,45.3 65.1,45.3 65.1,45.3 65.2,43.9 65.5,40.7 65.7,39 		"/>
	</g>
	<g>
		<path fill="#26354A" d="M48.9,14.7h-3.2v6.4h-4.5v3.1h7.7V14.7z"/>
		<path fill="#26354A" d="M55.6,18.1h3.1v-3.4h-7.9c0,0,0,1.7,0,3.4c1.1,1.1,1.6,1.6,3.1,3.1c-0.9,0-3.1,0-3.1,0v3.1h7.9v-3.1
			L55.6,18.1z"/>
	</g>
</g>
</svg>
