<?xml version="1.0" encoding="utf-8"?>
<!-- Generator: Adobe Illustrator 18.1.1, SVG Export Plug-In . SVG Version: 6.00 Build 0)  -->
<svg version="1.1" id="Layer_1" xmlns="http://www.w3.org/2000/svg" xmlns:xlink="http://www.w3.org/1999/xlink" x="0px" y="0px"
	 viewBox="0 0 100 100" enable-background="new 0 0 100 100" xml:space="preserve">
<g>
	<g>
		<path fill="#6A788D" d="M93.2,47.5c-0.1,0-0.2,0.2-0.2,0.3c0,0.7,0,2.6,0,3.9c0,0,0.1,0.1,0.1,0.1c0.3,0,0.9,0,1.5,0
			c0.8,0,1.2-0.1,1.5-0.2c0.6-0.3,1-1,1-1.8c0-1.8-1.2-2.4-3-2.4C93.8,47.5,93.5,47.5,93.2,47.5L93.2,47.5L93.2,47.5z M97.9,55.6
			c0-1.8-1.3-2.8-3.7-2.8c-0.1,0-0.9,0-1,0c-0.1,0-0.1,0.1-0.1,0.1c0,1.3,0,3.3,0,4.1c0,0.3,0.3,0.8,0.6,1c0.3,0.2,1.1,0.2,1.6,0.2
			C96.6,58.3,97.9,57.5,97.9,55.6L97.9,55.6L97.9,55.6z M89.5,46.5c0.2,0,0.7,0.1,2.1,0.1c1.3,0,2.4,0,3.6,0c1.6,0,3.7,0.6,3.7,2.9
			c0,1.2-0.8,2.1-1.9,2.5c-0.1,0-0.1,0.1,0,0.1c1.5,0.4,2.9,1.3,2.9,3.1c0,1.7-1.1,2.8-2.7,3.5c-1,0.4-2.1,0.6-3.4,0.6
			c-0.9,0-3.4-0.1-4.8-0.1c-0.1-0.1,0.1-0.7,0.3-0.8c0.3,0,0.6,0,0.9-0.1c0.5-0.1,0.5-0.3,0.6-1c0-0.6,0-2.9,0-4.5
			c0-2.2,0-3.7,0-4.4c0-0.6-0.2-0.7-0.6-0.8c-0.3-0.1-0.8-0.1-1.2-0.2C89.1,47.2,89.4,46.6,89.5,46.5L89.5,46.5L89.5,46.5z
			 M79.1,57.8c0.4,0.3,1.3,0.5,2,0.5c1,0,1.9-0.2,2.9-1c1-0.9,1.6-2.2,1.6-4.3c0-2-0.8-3.7-2.4-4.7c-0.9-0.6-2.1-0.8-3.4-0.8
			c-0.4,0-0.8,0-1,0.1c-0.1,0-0.2,0.2-0.2,0.3c0,0.4,0,3.1,0,4.8c0,1.7,0,4,0,4.3C78.7,57.2,78.9,57.6,79.1,57.8L79.1,57.8
			L79.1,57.8z M75,46.5c0.3,0,1.7,0.1,2.3,0.1c1.1,0,1.9-0.1,4.1-0.1c1.8,0,3.3,0.5,4.4,1.4c1.3,1.1,2,2.7,2,4.6
			c0,2.7-1.2,4.3-2.5,5.2c-1.2,0.9-2.9,1.5-5.2,1.5c-1.2,0-3.3,0-5.1-0.1h0c-0.1-0.2,0.1-0.8,0.3-0.8c0.5-0.1,0.6-0.1,0.8-0.2
			c0.4-0.1,0.5-0.3,0.5-1c0.1-1.2,0-2.7,0-4.4c0-1.2,0-3.6,0-4.3c-0.1-0.6-0.3-0.8-0.9-0.9c-0.3-0.1-0.6-0.1-1.1-0.2
			C74.6,47.2,74.9,46.7,75,46.5L75,46.5L75,46.5z"/>
		<path fill="#27354A" d="M53.2,58.5c-0.5-0.1-0.8-0.1-1.2-0.3c-0.1,0-0.1-0.2-0.1-0.3c0-0.6,0-2.4,0-3.6c0-1-0.2-1.8-0.6-2.4
			c-0.5-0.7-1.2-1.1-2.1-1.1c-0.8,0-1.9,0.5-2.7,1.3c0,0-0.2,0.1-0.1-0.1c0-0.2,0-0.6,0.1-0.9c0-0.3-0.1-0.4-0.1-0.4
			c-0.6,0.3-2.2,0.7-2.8,0.7c-0.4,0.1-0.5,0.5-0.1,0.6h0c0.5,0.1,0.8,0.3,1.1,0.5c0.2,0.1,0.2,0.3,0.2,0.5c0,1.4,0,3.4,0,4.6
			c0,0.5-0.1,0.6-0.5,0.7l0,0c-0.3,0.1-0.5,0.1-0.8,0.1c-0.1,0.1-0.1,0.7,0,0.8c0.2,0,1.2-0.1,2.1-0.1c1.2,0,1.8,0.1,2.1,0.1
			c0.1-0.1,0.2-0.7,0.1-0.8c-0.3,0-0.6-0.1-0.8-0.1c-0.3-0.1-0.4-0.2-0.4-0.6c0-1,0-3,0-4.3c0-0.4,0.1-0.6,0.2-0.7
			c0.4-0.4,1.1-0.6,1.7-0.6c0.6,0,1,0.2,1.2,0.4c0.4,0.3,0.5,0.8,0.6,1.1c0.1,0.8,0.1,2.3,0.1,3.6c0,0.7-0.1,0.9-0.3,1
			c-0.1,0.1-0.5,0.1-0.8,0.2c-0.1,0.1-0.1,0.7,0,0.8c0.5,0,1.1-0.1,2-0.1c1.1,0,1.8,0.1,2.1,0.1C53.2,59.1,53.3,58.6,53.2,58.5
			L53.2,58.5L53.2,58.5z M58.2,51.6c-1,0-1.6,0.7-1.6,1.9c0,1.2,0.5,2.5,2,2.5c0.3,0,0.7-0.1,0.9-0.4c0.3-0.3,0.6-1,0.6-1.7
			C60.2,52.5,59.4,51.6,58.2,51.6L58.2,51.6L58.2,51.6z M58.1,59.6c-0.4,0-0.6,0.1-0.8,0.2c-0.8,0.5-1.1,1-1.1,1.5
			c0,0.5,0.2,0.9,0.6,1.3c0.5,0.5,1.2,0.7,2.2,0.7c1.8,0,2.7-1,2.7-2c0-0.7-0.3-1.1-1-1.4C60.1,59.7,59.2,59.6,58.1,59.6L58.1,59.6
			L58.1,59.6z M58.2,64.2c-1.1,0-1.9-0.2-2.6-0.8c-0.7-0.5-1-1.3-1-1.8c0-0.1,0-0.5,0.4-0.9c0.2-0.2,0.6-0.6,1.7-1.3
			c0,0,0.1,0,0.1-0.1s0-0.1-0.1-0.1c-0.8-0.3-1.1-0.8-1.2-1.1v0c0-0.1-0.1-0.2,0.1-0.3c0.1-0.1,0.3-0.2,0.5-0.3
			c0.3-0.2,0.6-0.4,0.8-0.5c0,0,0-0.1,0-0.1s0-0.1-0.1-0.1C55.6,56.3,55,55.4,55,54c0-0.9,0.4-1.8,1.2-2.3c0.5-0.4,1.8-0.9,2.6-0.9
			h0.1c0.8,0,1.3,0.2,2,0.4c0.4,0.1,0.7,0.2,1.2,0.2c0.7,0,1-0.2,1.3-0.5c0,0,0.1,0.1,0.1,0.4c0,0.2-0.1,0.6-0.2,0.8
			c-0.1,0.2-0.5,0.3-0.8,0.3h-0.1c-0.3,0-0.5-0.1-0.5-0.1l-0.1,0c0,0,0,0.1,0,0.1l0,0c0,0.2,0.1,0.6,0.1,0.8c0,1.5-0.6,2.1-1.2,2.6
			c-0.6,0.5-1.3,0.7-2.1,0.8c0,0-0.1,0-0.3,0c-0.1,0-0.2,0-0.2,0h0c-0.1,0-0.5,0.2-0.5,0.5c0,0.3,0.2,0.6,0.9,0.6c0.2,0,0.3,0,0.5,0
			c1,0.1,2.3,0.2,2.9,0.4c0.8,0.3,1.4,1,1.4,1.9c0,1.3-1,2.6-2.5,3.4C59.8,64.1,59,64.2,58.2,64.2L58.2,64.2L58.2,64.2z M68.5,51.7
			c-0.4,0-0.7,0.1-1,0.3c-0.7,0.4-1.1,1.3-1.1,2.6c0,2.4,1.2,4,2.9,4c0.5,0,0.9-0.1,1.2-0.4c0.5-0.4,0.8-1.3,0.8-2.5
			C71.4,53.2,70.2,51.7,68.5,51.7L68.5,51.7L68.5,51.7z M68.8,59.4c-3.1,0-4.2-2.3-4.2-4.4c0-1.5,0.6-2.6,1.8-3.4
			c0.8-0.5,1.9-0.8,2.8-0.8c2.3,0,4,1.7,4,4.1c0,1.6-0.6,2.9-1.9,3.7C70.7,59,69.6,59.4,68.8,59.4L68.8,59.4L68.8,59.4z M36.6,51.7
			c-0.4,0-0.7,0.1-1,0.3c-0.7,0.4-1.1,1.3-1.1,2.6c0,2.4,1.2,4,2.9,4c0.5,0,0.9-0.1,1.2-0.4c0.5-0.4,0.8-1.3,0.8-2.5
			C39.5,53.2,38.4,51.7,36.6,51.7L36.6,51.7L36.6,51.7z M37,59.4c-3.1,0-4.2-2.3-4.2-4.4c0-1.5,0.6-2.6,1.8-3.4
			c0.8-0.5,1.9-0.8,2.8-0.8c2.3,0,4,1.7,4,4.1c0,1.6-0.6,2.9-1.9,3.7C38.9,59,37.8,59.4,37,59.4L37,59.4L37,59.4z M16.3,59.2
			c0-0.1-0.1-0.2-0.1-0.4c0-0.1,0-0.2,0.1-0.3c0.4-0.1,0.6-0.1,0.8-0.2c0.4-0.1,0.5-0.3,0.5-0.7c0.1-1.1,0.1-3.1,0-4.6v0
			c0-0.2,0-0.4-0.2-0.5c-0.3-0.2-0.6-0.3-1.1-0.5c-0.2-0.1-0.3-0.1-0.3-0.3c0-0.1,0.1-0.2,0.3-0.3c0.6-0.1,2.1-0.4,2.8-0.7
			c0,0,0.1,0.1,0.1,0.3l0,0.2c0,0.2,0,0.4,0,0.7c0,0.1,0.1,0.1,0.1,0.1c0,0,0.1,0,0.1,0c1.2-0.9,2.2-1.2,2.7-1.2
			c0.9,0,1.6,0.4,2.1,1.3c0,0.1,0.1,0.1,0.1,0.1c0,0,0.1,0,0.1-0.1c1.1-0.8,2.1-1.3,2.8-1.3c1.7,0,2.7,1.2,2.7,3.4
			c0,0.6,0,1.4,0,2.1c0,0.6,0,1.2,0,1.6c0,0.1,0.1,0.4,0.3,0.4c0.3,0.1,0.6,0.2,1,0.3h0c0,0.1,0,0.6-0.1,0.7c-0.1,0-0.3,0-0.5,0
			c-0.3,0-0.8,0-1.4,0c-1.1,0-1.7,0-2.3,0.1c0-0.1-0.1-0.6,0-0.7c0.3-0.1,0.5-0.1,0.7-0.2c0.4-0.1,0.5-0.3,0.5-0.7
			c0-0.3,0.1-3.3,0-4c-0.1-0.7-0.6-1.6-1.8-1.6c-0.5,0-1.2,0.2-1.8,0.7c0,0-0.1,0.1-0.1,0.2v0c0.1,0.4,0.1,0.8,0.1,1.5v1.2
			c0,0.8,0,1.6,0,2.1c0,0.4,0.2,0.5,0.4,0.6c0.1,0,0.2,0,0.3,0.1c0.2,0,0.3,0.1,0.6,0.1c0,0.1,0,0.3,0,0.5c0,0.1-0.1,0.2-0.1,0.2
			c-0.6,0-1.2,0-2.2,0c-0.3,0-0.7,0-1.1,0c-0.3,0-0.6,0-0.8,0c0,0-0.1-0.2-0.1-0.4c0-0.2,0-0.3,0.1-0.3c0.1,0,0.2,0,0.3,0
			c0.2,0,0.4-0.1,0.6-0.1c0.3-0.1,0.4-0.3,0.4-0.6c0.1-0.9,0.1-3.5,0-4.1c-0.2-1-0.8-1.6-1.8-1.6c-0.6,0-1.3,0.3-1.8,0.7
			c-0.1,0.1-0.2,0.3-0.2,0.4v1.1c0,1.3,0,2.9,0,3.6c0,0.2,0.1,0.5,0.5,0.6c0.1,0,0.2,0.1,0.4,0.1l0.3,0.1c0,0.1,0,0.5-0.1,0.7
			c-0.2,0-0.4,0-0.6,0c-0.4,0-0.9,0-1.4,0c-0.6,0-1.1,0-1.4,0C16.8,59.2,16.6,59.2,16.3,59.2L16.3,59.2L16.3,59.2z"/>
		<g>
			<path fill="#FFFFFF" d="M6.9,63.5l-0.7-0.3c0,0,0.1-3.8-1.3-4c-0.9-1,0.1-44.4,3.4-0.1c0,0-1.1,0.6-1.3,1.5
				C6.7,61.6,6.9,63.5,6.9,63.5L6.9,63.5L6.9,63.5z"/>
			<path fill="#7B8A9F" d="M6.9,63.5l-0.7-0.3c0,0,0.1-3.8-1.3-4c-0.9-1,0.1-44.4,3.4-0.1c0,0-1.1,0.6-1.3,1.5
				C6.7,61.6,6.9,63.5,6.9,63.5L6.9,63.5L6.9,63.5z"/>
			<path fill="#FFFFFF" d="M7.3,59.9c0,0,6.5-4.3,5-13.1c-1.5-6.4-4.9-8.6-5.3-9.4c-0.4-0.6-0.8-1.6-0.8-1.6l0.3,17.9
				C6.4,53.8,5.8,59.2,7.3,59.9"/>
			<path fill="#6E7D92" d="M7.3,59.9c0,0,6.5-4.3,5-13.1c-1.5-6.4-4.9-8.6-5.3-9.4c-0.4-0.6-0.8-1.6-0.8-1.6l0.3,17.9
				C6.4,53.8,5.8,59.2,7.3,59.9"/>
			<path fill="#FFFFFF" d="M5.7,60.1c0,0-6.1-4.2-5.7-11.5c0.3-7.3,4.6-10.9,5.5-11.5C6,36.5,6,36.3,6.1,35.8
				c0.4,0.8,0.3,12.1,0.4,13.5C6.6,54.4,6.2,59.2,5.7,60.1L5.7,60.1L5.7,60.1z"/>
			<path fill="#7B8A9F" d="M5.7,60.1c0,0-6.1-4.2-5.7-11.5c0.3-7.3,4.6-10.9,5.5-11.5C6,36.5,6,36.3,6.1,35.8
				c0.4,0.8,0.3,12.1,0.4,13.5C6.6,54.4,6.2,59.2,5.7,60.1L5.7,60.1L5.7,60.1z"/>
		</g>
	</g>
</g>
</svg>
