<?xml version="1.0" encoding="utf-8"?>
<!-- Generator: Adobe Illustrator 18.1.1, SVG Export Plug-In . SVG Version: 6.00 Build 0)  -->
<svg version="1.1" id="Layer_1" xmlns="http://www.w3.org/2000/svg" xmlns:xlink="http://www.w3.org/1999/xlink" x="0px" y="0px"
	 viewBox="0 0 100 100" enable-background="new 0 0 100 100" xml:space="preserve">
<g>
	<path fill="#7A899E" d="M49.4,80c-0.3,0-0.6-0.1-0.9-0.2l-3-1.7c-0.4-0.2-0.2-0.3-0.1-0.4c0.6-0.2,0.7-0.3,1.3-0.6
		c0.1,0,0.2,0,0.2,0l2.3,1.3c0.1,0,0.2,0,0.3,0l8.8-5.1c0.1,0,0.1-0.1,0.1-0.2V62.8c0-0.1-0.1-0.2-0.1-0.2l-8.8-5.1
		c-0.1,0-0.2,0-0.3,0l-8.8,5.1c-0.1,0-0.1,0.1-0.1,0.2V73c0,0.1,0.1,0.2,0.1,0.2l2.4,1.4c1.3,0.7,2.1-0.1,2.1-0.9V63.7
		c0-0.1,0.1-0.3,0.3-0.3h1.1c0.1,0,0.3,0.1,0.3,0.3v10.1c0,1.8-1,2.8-2.6,2.8c-0.5,0-0.9,0-2-0.6l-2.3-1.3c-0.6-0.3-0.9-1-0.9-1.6
		V62.8c0-0.7,0.4-1.3,0.9-1.6l8.9-5.1c0.6-0.3,1.3-0.3,1.9,0l8.8,5.1c0.6,0.3,0.9,0.9,0.9,1.6V73c0,0.7-0.4,1.3-0.9,1.6l-8.8,5.1
		C50.1,79.9,49.8,80,49.4,80"/>
	<path fill="#7A899E" d="M52.2,73c-3.9,0-4.7-1.8-4.7-3.3c0-0.1,0.1-0.3,0.3-0.3h1.1c0.1,0,0.2,0.1,0.3,0.2c0.2,1.2,0.7,1.8,3,1.8
		c1.9,0,2.7-0.4,2.7-1.4c0-0.6-0.2-1-3.1-1.3c-2.4-0.2-3.9-0.8-3.9-2.7c0-1.8,1.5-2.8,4-2.8c2.8,0,4.2,1,4.4,3.1
		c0,0.1,0,0.1-0.1,0.2c0,0.1-0.1,0.1-0.2,0.1h-1.1c-0.1,0-0.2-0.1-0.2-0.2c-0.3-1.2-0.9-1.6-2.8-1.6c-2,0-2.3,0.7-2.3,1.2
		c0,0.6,0.3,0.8,3,1.2c2.7,0.4,4,0.9,4,2.8C56.6,71.9,55,73,52.2,73 M62.9,62.1h0.3c0.2,0,0.3-0.2,0.3-0.3c0-0.3-0.2-0.3-0.3-0.3
		h-0.3L62.9,62.1z M62.6,61.3h0.7c0.2,0,0.7,0,0.7,0.5c0,0.4-0.2,0.4-0.4,0.5c0.3,0,0.3,0.2,0.3,0.4c0,0.2,0,0.4,0.1,0.5h-0.4
		c0-0.1-0.1-0.6-0.1-0.6c0-0.1-0.1-0.2-0.2-0.2h-0.3v0.8h-0.4V61.3z M61.8,62.3c0,0.8,0.6,1.4,1.4,1.4c0.8,0,1.4-0.7,1.4-1.4
		c0-0.8-0.6-1.4-1.4-1.4C62.4,60.8,61.8,61.5,61.8,62.3 M64.9,62.3c0,0.9-0.8,1.7-1.7,1.7c-0.9,0-1.7-0.8-1.7-1.7
		c0-1,0.8-1.7,1.7-1.7C64.1,60.6,64.9,61.3,64.9,62.3"/>
	<path fill="#26354A" d="M22,40.1c0-0.4-0.2-0.8-0.6-1l-9.4-5.4c-0.2-0.1-0.3-0.1-0.5-0.1h-0.1c-0.2,0-0.4,0.1-0.5,0.1l-9.4,5.4
		c-0.3,0.2-0.6,0.6-0.6,1l0,14.5c0,0.2,0.1,0.4,0.3,0.5c0.2,0.1,0.4,0.1,0.6,0l5.6-3.2c0.4-0.2,0.6-0.6,0.6-1v-6.8
		c0-0.4,0.2-0.8,0.6-1l2.4-1.4c0.2-0.1,0.4-0.2,0.6-0.2c0.2,0,0.4,0.1,0.6,0.2l2.4,1.4c0.4,0.2,0.6,0.6,0.6,1v6.8
		c0,0.4,0.2,0.8,0.6,1l5.6,3.2c0.2,0.1,0.4,0.1,0.6,0c0.2-0.1,0.3-0.3,0.3-0.5L22,40.1z M66.3,47.6c0,0.1-0.1,0.2-0.1,0.2l-3.2,1.9
		c-0.1,0.1-0.2,0.1-0.3,0l-3.2-1.9c-0.1-0.1-0.1-0.1-0.1-0.2v-3.7c0-0.1,0.1-0.2,0.1-0.2l3.2-1.9c0.1-0.1,0.2-0.1,0.3,0l3.2,1.9
		c0.1,0.1,0.1,0.1,0.1,0.2L66.3,47.6z M67.2,20.1c-0.2-0.1-0.4-0.1-0.6,0c-0.2,0.1-0.3,0.3-0.3,0.5V35c0,0.1-0.1,0.3-0.2,0.3
		c-0.1,0.1-0.3,0.1-0.4,0L63.4,34c-0.3-0.2-0.8-0.2-1.1,0l-9.4,5.4c-0.4,0.2-0.6,0.6-0.6,1v10.8c0,0.4,0.2,0.8,0.6,1l9.4,5.4
		c0.4,0.2,0.8,0.2,1.1,0l9.4-5.4c0.3-0.2,0.6-0.6,0.6-1v-27c0-0.4-0.2-0.8-0.6-1L67.2,20.1z M98.4,43.8c0.3-0.2,0.6-0.6,0.6-1v-2.6
		c0-0.4-0.2-0.8-0.6-1l-9.3-5.4c-0.4-0.2-0.8-0.2-1.1,0l-9.4,5.4c-0.4,0.2-0.6,0.6-0.6,1V51c0,0.4,0.2,0.8,0.6,1l9.3,5.3
		c0.3,0.2,0.8,0.2,1.1,0l5.6-3.1c0.2-0.1,0.3-0.3,0.3-0.5c0-0.2-0.1-0.4-0.3-0.5l-9.4-5.4c-0.2-0.1-0.3-0.3-0.3-0.5v-3.4
		c0-0.2,0.1-0.4,0.3-0.5l2.9-1.7c0.2-0.1,0.4-0.1,0.6,0l2.9,1.7c0.2,0.1,0.3,0.3,0.3,0.5v2.7c0,0.2,0.1,0.4,0.3,0.5
		c0.2,0.1,0.4,0.1,0.6,0L98.4,43.8z"/>
	<path fill="#7A899E" d="M88.4,43.3c0.1,0,0.1,0,0.2,0l1.8,1c0.1,0,0.1,0.1,0.1,0.2v2.1c0,0.1,0,0.1-0.1,0.2l-1.8,1
		c-0.1,0-0.2,0-0.2,0l-1.8-1c-0.1,0-0.1-0.1-0.1-0.2v-2.1c0-0.1,0-0.1,0.1-0.2L88.4,43.3z"/>
	<g>
		<defs>
			<path id="SVGID_1_" d="M36.6,33.9l-9.3,5.4c-0.3,0.2-0.6,0.6-0.6,1V51c0,0.4,0.2,0.8,0.6,1l9.3,5.4c0.3,0.2,0.8,0.2,1.1,0
				l9.3-5.4c0.3-0.2,0.6-0.6,0.6-1V40.2c0-0.4-0.2-0.8-0.6-1l-9.3-5.4c-0.2-0.1-0.4-0.2-0.6-0.2S36.8,33.8,36.6,33.9"/>
		</defs>
		<clipPath id="SVGID_2_">
			<use xlink:href="#SVGID_1_"  overflow="visible"/>
		</clipPath>
		<g transform="translate(-78.306 -164.016)" clip-path="url(#SVGID_2_)">
			<g>
				<path fill="#77869B" d="M135.4,202.3l-26.3-12.9L95.6,217l26.3,12.9L135.4,202.3z"/>
			</g>
		</g>
	</g>
	<g>
		<defs>
			<path id="SVGID_3_" d="M26.9,51.7c0.1,0.1,0.2,0.2,0.3,0.3l8,4.6l1.3,0.8c0.2,0.1,0.4,0.2,0.6,0.1c0.1,0,0.1,0,0.2,0l9.8-18
				c-0.1-0.1-0.2-0.2-0.3-0.2L41,35.7l-3.2-1.9c-0.1-0.1-0.2-0.1-0.3-0.1L26.9,51.7z"/>
		</defs>
		<clipPath id="SVGID_4_">
			<use xlink:href="#SVGID_3_"  overflow="visible"/>
		</clipPath>
		<g transform="translate(-78.306 -164.016)" clip-path="url(#SVGID_4_)">
			<g>
				<path fill="#5B6A7F" d="M93.9,206.2l18.6,25.1l24.6-18.1L118.4,188L93.9,206.2z"/>
			</g>
		</g>
	</g>
	<g>
		<defs>
			<path id="SVGID_5_" d="M37.1,33.7c-0.2,0-0.3,0.1-0.5,0.1l-9.3,5.4l10,18.3c0.1,0,0.3-0.1,0.4-0.1l9.3-5.4
				c0.3-0.2,0.5-0.4,0.5-0.8L37.4,33.7C37.3,33.7,37.2,33.7,37.1,33.7C37.1,33.7,37.1,33.7,37.1,33.7"/>
		</defs>
		<clipPath id="SVGID_6_">
			<use xlink:href="#SVGID_5_"  overflow="visible"/>
		</clipPath>
		<g transform="translate(-78.306 -164.016)" clip-path="url(#SVGID_6_)">
			<g>
				<path fill="#8E9DB2" d="M105.6,197.7v23.8h20.3v-23.8L105.6,197.7z"/>
			</g>
		</g>
	</g>
</g>
</svg>
