<?xml version="1.0" encoding="utf-8"?>
<!-- Generator: Adobe Illustrator 18.1.1, SVG Export Plug-In . SVG Version: 6.00 Build 0)  -->
<svg version="1.1" id="Layer_1" xmlns="http://www.w3.org/2000/svg" xmlns:xlink="http://www.w3.org/1999/xlink" x="0px" y="0px"
	 viewBox="0 0 100 100" enable-background="new 0 0 100 100" xml:space="preserve">
<g>
	<g>
		<path fill="#8E9DB2" d="M25.8,45.1c-0.3-0.1-0.7-0.2-1-0.3c0.1-0.2,0.1-0.5,0.2-0.7c0.8-3.7,0.3-6.7-1.4-7.7c-1.6-0.9-4.3,0-7,2.4
			c-0.3,0.2-0.5,0.5-0.8,0.7c-0.2-0.2-0.3-0.3-0.5-0.5c-2.8-2.5-5.7-3.6-7.4-2.6c-1.6,0.9-2.1,3.8-1.4,7.3c0.1,0.3,0.1,0.7,0.2,1
			c-0.4,0.1-0.8,0.2-1.2,0.4C2.1,46.3,0,48.1,0,50c0,1.9,2.3,3.9,5.7,5.1c0.3,0.1,0.6,0.2,0.8,0.3c-0.1,0.4-0.2,0.8-0.2,1.1
			c-0.7,3.4-0.1,6.2,1.5,7.1c1.7,1,4.5,0,7.3-2.4c0.2-0.2,0.4-0.4,0.7-0.6c0.3,0.3,0.6,0.5,0.8,0.8c2.7,2.3,5.3,3.2,6.9,2.3
			c1.7-1,2.2-3.9,1.5-7.5c-0.1-0.3-0.1-0.6-0.2-0.8c0.2-0.1,0.4-0.1,0.6-0.2c3.6-1.2,5.9-3.1,5.9-5.1C31.3,48.1,29.1,46.3,25.8,45.1
			z M17.3,39.8c2.3-2,4.5-2.8,5.5-2.2c1,0.6,1.5,3,0.8,6.2c0,0.2-0.1,0.4-0.1,0.6c-1.3-0.3-2.7-0.5-4.2-0.7
			c-0.9-1.2-1.8-2.3-2.6-3.3C16.9,40.2,17.1,40,17.3,39.8z M10,50c0.4-0.8,0.8-1.7,1.3-2.5l0,0c0.5-0.8,1-1.6,1.5-2.4
			c0.9-0.1,1.9-0.1,2.9-0.1h0c1,0,1.9,0,2.9,0.1c0.5,0.8,1,1.6,1.5,2.4c0.5,0.8,0.9,1.7,1.4,2.5c-0.4,0.8-0.9,1.7-1.3,2.5
			c-0.5,0.8-1,1.7-1.5,2.4C17.6,55,16.6,55,15.7,55c-1,0-1.9,0-2.8-0.1c-0.5-0.8-1-1.6-1.5-2.4h0C10.8,51.7,10.4,50.8,10,50z
			 M9.2,51.6c0.3,0.5,0.6,1.1,0.9,1.6h0c0.3,0.5,0.6,1.1,1,1.6c-1-0.1-2-0.3-2.9-0.5C8.5,53.5,8.8,52.5,9.2,51.6z M9.2,48.4
			c-0.4-0.9-0.7-1.8-1-2.7c0.9-0.2,1.8-0.4,2.8-0.5c-0.3,0.5-0.6,1-1,1.6v0C9.8,47.3,9.5,47.9,9.2,48.4z M21.2,53.2
			c0.3-0.6,0.6-1.1,0.9-1.7c0.4,1,0.8,1.9,1.1,2.8c-0.9,0.2-1.9,0.4-2.9,0.5C20.6,54.3,20.9,53.7,21.2,53.2z M22.1,48.4
			c-0.3-0.5-0.6-1.1-0.9-1.6c-0.3-0.5-0.6-1.1-1-1.6c1,0.1,2,0.3,2.9,0.5C22.8,46.6,22.5,47.5,22.1,48.4z M15.7,41.4
			c0.6,0.7,1.2,1.4,1.8,2.2c-0.6,0-1.2,0-1.9,0c-0.6,0-1.2,0-1.8,0C14.4,42.9,15,42.1,15.7,41.4z M8.5,37.6c1-0.6,3.4,0.3,5.8,2.4
			c0.2,0.1,0.3,0.3,0.5,0.4c-0.9,1-1.8,2.1-2.7,3.3c-1.5,0.1-2.9,0.4-4.2,0.6c-0.1-0.3-0.2-0.6-0.2-1C7.1,40.5,7.5,38.2,8.5,37.6z
			 M6.9,54c-0.3-0.1-0.5-0.2-0.8-0.2c-1.5-0.5-2.8-1.2-3.7-1.9c-0.8-0.7-1.2-1.3-1.2-1.9c0-1.1,1.7-2.6,4.5-3.6
			c0.3-0.1,0.7-0.2,1.1-0.3c0.4,1.3,0.9,2.6,1.5,4C7.8,51.4,7.3,52.7,6.9,54z M14.2,60.1c-1.2,1.1-2.4,1.8-3.5,2.2
			c-1,0.3-1.7,0.4-2.2,0.1c-1-0.6-1.4-2.8-0.8-5.7c0.1-0.3,0.1-0.7,0.2-1c1.3,0.3,2.7,0.5,4.2,0.6c0.9,1.2,1.8,2.3,2.7,3.3
			C14.6,59.8,14.4,59.9,14.2,60.1z M15.7,58.6c-0.6-0.7-1.3-1.4-1.9-2.3c0.6,0,1.2,0,1.8,0c0.6,0,1.3,0,1.9,0
			C16.9,57.2,16.3,57.9,15.7,58.6z M23.8,60.5c-0.2,1-0.6,1.7-1,1.9c-1,0.6-3.1-0.2-5.4-2.1c-0.3-0.2-0.5-0.5-0.8-0.7
			c0.9-1,1.8-2.1,2.6-3.3c1.5-0.1,2.9-0.4,4.2-0.7c0.1,0.3,0.1,0.5,0.2,0.8C24,57.9,24,59.3,23.8,60.5z M25,53.8
			c-0.2,0.1-0.3,0.1-0.5,0.2c-0.4-1.3-0.9-2.6-1.6-4c0.6-1.3,1.1-2.7,1.5-3.9c0.3,0.1,0.6,0.2,0.9,0.3c2.9,1,4.7,2.5,4.7,3.6
			C30,51.2,28.1,52.8,25,53.8z"/>
		<circle fill="#8E9DB2" cx="15.7" cy="50" r="2.8"/>
	</g>
	<g>
		<path fill="#8E9DB2" d="M39.9,40.9h8c1.3,0,2.4,0.2,3.3,0.6c1.6,0.7,2.4,2.1,2.4,4.1c0,1-0.2,1.9-0.6,2.5c-0.4,0.7-1,1.2-1.8,1.6
			c0.7,0.3,1.2,0.6,1.5,1.1c0.3,0.4,0.5,1.2,0.6,2.2l0.1,2.3c0,0.7,0.1,1.1,0.2,1.5c0.1,0.5,0.4,0.9,0.8,1.1v0.4h-2.9
			c-0.1-0.1-0.1-0.3-0.2-0.6c0-0.2-0.1-0.7-0.1-1.4l-0.1-2.9c-0.1-1.1-0.5-1.9-1.3-2.3c-0.4-0.2-1.1-0.3-2.1-0.3h-5.3v7.4h-2.3V40.9
			z M47.6,48.8c1.1,0,2-0.2,2.6-0.7c0.6-0.4,1-1.2,1-2.4c0-1.2-0.4-2.1-1.3-2.5c-0.5-0.2-1.1-0.4-1.9-0.4h-5.7v5.9H47.6z"/>
		<path fill="#8E9DB2" d="M66.4,47.5c0.4,0.6,0.7,1.4,0.8,2.2c0.1,0.6,0.2,1.5,0.2,2.8h-9.2c0,1.3,0.3,2.3,0.9,3.1
			c0.6,0.8,1.4,1.2,2.6,1.2c1.1,0,2-0.4,2.6-1.1c0.4-0.4,0.6-0.9,0.8-1.5h2.1c-0.1,0.5-0.2,1-0.5,1.5c-0.3,0.6-0.7,1-1,1.4
			c-0.6,0.6-1.4,1-2.4,1.3c-0.5,0.1-1.1,0.2-1.7,0.2c-1.6,0-2.9-0.6-4-1.7c-1.1-1.1-1.6-2.7-1.6-4.8c0-2,0.5-3.7,1.6-4.9
			c1.1-1.3,2.5-1.9,4.3-1.9c0.9,0,1.8,0.2,2.6,0.6C65.3,46.3,66,46.9,66.4,47.5z M65.3,50.8c-0.1-0.9-0.3-1.6-0.6-2.2
			c-0.6-1-1.5-1.5-2.9-1.5c-1,0-1.8,0.4-2.4,1.1c-0.7,0.7-1,1.6-1,2.7H65.3z"/>
		<path fill="#8E9DB2" d="M76.8,50.5c0.5-0.1,0.8-0.3,1-0.6c0.1-0.2,0.1-0.5,0.1-0.8c0-0.7-0.3-1.2-0.8-1.6
			c-0.5-0.3-1.2-0.5-2.2-0.5c-1.1,0-1.9,0.3-2.3,0.9c-0.3,0.3-0.4,0.8-0.5,1.5h-2c0-1.5,0.5-2.6,1.5-3.2c1-0.6,2.1-0.9,3.4-0.9
			c1.5,0,2.7,0.3,3.6,0.8c0.9,0.6,1.4,1.4,1.4,2.6V56c0,0.2,0,0.4,0.1,0.5c0.1,0.1,0.3,0.2,0.6,0.2c0.1,0,0.2,0,0.3,0
			c0.1,0,0.2,0,0.4-0.1v1.6c-0.3,0.1-0.6,0.2-0.8,0.2c-0.2,0-0.4,0-0.7,0c-0.7,0-1.3-0.3-1.6-0.8c-0.2-0.3-0.3-0.7-0.4-1.2
			c-0.4,0.6-1,1.1-1.9,1.5c-0.8,0.4-1.7,0.6-2.7,0.6c-1.2,0-2.1-0.4-2.9-1.1c-0.7-0.7-1.1-1.6-1.1-2.7c0-1.2,0.4-2.1,1.1-2.7
			c0.7-0.6,1.7-1,2.9-1.2L76.8,50.5z M73.9,56.8c0.7,0,1.5-0.2,2.2-0.5c1.2-0.6,1.8-1.5,1.8-2.8v-1.7c-0.3,0.2-0.6,0.3-1,0.4
			c-0.4,0.1-0.8,0.2-1.2,0.2l-1.3,0.2c-0.8,0.1-1.3,0.3-1.7,0.5c-0.6,0.4-1,1-1,1.8c0,0.6,0.2,1.1,0.7,1.4S73.3,56.8,73.9,56.8z"/>
		<path fill="#8E9DB2" d="M93.3,49.8h-2.1c-0.1-0.8-0.4-1.4-0.9-1.9c-0.4-0.5-1.2-0.8-2.1-0.8c-1.3,0-2.3,0.7-2.9,2
			c-0.4,0.9-0.6,1.9-0.6,3.2c0,1.3,0.3,2.3,0.8,3.2c0.5,0.9,1.4,1.3,2.5,1.3c0.9,0,1.6-0.3,2.1-0.8c0.5-0.5,0.9-1.3,1.1-2.2h2.1
			c-0.2,1.7-0.8,2.9-1.8,3.7c-0.9,0.8-2.1,1.2-3.6,1.2c-1.6,0-3-0.6-3.9-1.8c-1-1.2-1.5-2.7-1.5-4.5c0-2.2,0.5-3.9,1.6-5.2
			c1.1-1.2,2.4-1.8,4.1-1.8c1.4,0,2.6,0.3,3.5,1C92.6,46.9,93.1,48.1,93.3,49.8z"/>
		<path fill="#8E9DB2" d="M95.9,42.1H98v3.5h2v1.7h-2v8.2c0,0.4,0.1,0.7,0.4,0.9c0.2,0.1,0.4,0.1,0.8,0.1c0.1,0,0.2,0,0.3,0
			c0.1,0,0.3,0,0.4,0v1.7c-0.2,0.1-0.5,0.1-0.8,0.2c-0.3,0-0.5,0-0.9,0c-1,0-1.7-0.3-2-0.8c-0.4-0.5-0.5-1.2-0.5-2v-8.3h-1.7v-1.7
			h1.7V42.1z"/>
	</g>
</g>
</svg>
