<?xml version="1.0" encoding="utf-8"?>
<!-- Generator: Adobe Illustrator 18.1.1, SVG Export Plug-In . SVG Version: 6.00 Build 0)  -->
<svg version="1.1" id="Layer_1" xmlns="http://www.w3.org/2000/svg" xmlns:xlink="http://www.w3.org/1999/xlink" x="0px" y="0px"
	 viewBox="0 0 100 100" enable-background="new 0 0 100 100" xml:space="preserve">
<g>
	<g>
		<path fill="#8E9DB2" d="M14.8,47.2c-0.2-0.1-0.4-0.1-0.6-0.2c0-0.1,0.1-0.3,0.1-0.4c0.4-2.1,0.2-3.8-0.8-4.4c-0.9-0.5-2.5,0-4,1.4
			C9.3,43.7,9.1,43.8,9,44c-0.1-0.1-0.2-0.2-0.3-0.3c-1.6-1.4-3.2-2-4.2-1.5c-0.9,0.5-1.2,2.2-0.8,4.2c0,0.2,0.1,0.4,0.1,0.6
			c-0.2,0.1-0.5,0.1-0.7,0.2C1.2,47.9,0,48.9,0,50c0,1.1,1.3,2.2,3.3,2.9C3.4,52.9,3.6,53,3.8,53c-0.1,0.2-0.1,0.4-0.1,0.6
			c-0.4,2-0.1,3.6,0.9,4.1c1,0.6,2.6,0,4.2-1.4C8.8,56.3,8.9,56.2,9,56c0.2,0.2,0.3,0.3,0.5,0.4c1.5,1.3,3,1.8,4,1.3
			c1-0.6,1.3-2.2,0.9-4.3c0-0.2-0.1-0.3-0.1-0.5c0.1,0,0.2-0.1,0.3-0.1c2.1-0.7,3.4-1.8,3.4-2.9C18,48.9,16.7,47.9,14.8,47.2z
			 M9.9,44.2c1.3-1.2,2.6-1.6,3.1-1.3c0.6,0.3,0.8,1.7,0.5,3.6c0,0.1-0.1,0.2-0.1,0.4c-0.7-0.2-1.6-0.3-2.4-0.4
			c-0.5-0.7-1-1.3-1.5-1.9C9.7,44.4,9.8,44.3,9.9,44.2z M5.7,50c0.2-0.5,0.5-1,0.8-1.4l0,0c0.3-0.5,0.6-0.9,0.9-1.4
			c0.5,0,1.1-0.1,1.6-0.1h0c0.6,0,1.1,0,1.6,0.1c0.3,0.4,0.6,0.9,0.9,1.4c0.3,0.5,0.5,1,0.8,1.4c-0.2,0.5-0.5,1-0.8,1.5
			c-0.3,0.5-0.6,1-0.9,1.4c-0.5,0-1.1,0.1-1.6,0.1c-0.6,0-1.1,0-1.6-0.1c-0.3-0.4-0.6-0.9-0.9-1.4h0C6.2,51,5.9,50.5,5.7,50z
			 M5.3,50.9c0.2,0.3,0.3,0.6,0.5,0.9h0c0.2,0.3,0.4,0.6,0.6,0.9c-0.6-0.1-1.1-0.2-1.7-0.3C4.9,52,5.1,51.4,5.3,50.9z M5.3,49.1
			c-0.2-0.5-0.4-1.1-0.6-1.6c0.5-0.1,1.1-0.2,1.6-0.3c-0.2,0.3-0.4,0.6-0.6,0.9v0C5.6,48.5,5.5,48.8,5.3,49.1z M12.2,51.8
			c0.2-0.3,0.4-0.6,0.5-1c0.2,0.5,0.4,1.1,0.6,1.6c-0.5,0.1-1.1,0.2-1.7,0.3C11.8,52.4,12,52.1,12.2,51.8z M12.7,49.1
			c-0.2-0.3-0.3-0.6-0.5-0.9c-0.2-0.3-0.4-0.6-0.5-0.9c0.6,0.1,1.1,0.2,1.6,0.3C13.1,48.1,12.9,48.6,12.7,49.1z M9,45.1
			c0.4,0.4,0.7,0.8,1.1,1.3c-0.4,0-0.7,0-1.1,0c-0.4,0-0.7,0-1.1,0C8.3,45.9,8.6,45.5,9,45.1z M4.9,42.9c0.6-0.3,1.9,0.1,3.3,1.4
			c0.1,0.1,0.2,0.2,0.3,0.2c-0.5,0.6-1,1.2-1.5,1.9c-0.8,0.1-1.7,0.2-2.4,0.4c0-0.2-0.1-0.4-0.1-0.6C4.1,44.5,4.3,43.2,4.9,42.9z
			 M4,52.3c-0.2,0-0.3-0.1-0.4-0.1c-0.9-0.3-1.6-0.7-2.1-1.1C1,50.7,0.8,50.3,0.8,50c0-0.7,1-1.5,2.6-2.1c0.2-0.1,0.4-0.1,0.6-0.2
			c0.2,0.7,0.5,1.5,0.9,2.3C4.5,50.8,4.2,51.6,4,52.3z M8.1,55.8c-0.7,0.6-1.4,1-2,1.3c-0.6,0.2-1,0.2-1.3,0
			c-0.6-0.3-0.8-1.6-0.5-3.3c0-0.2,0.1-0.4,0.1-0.6c0.7,0.2,1.6,0.3,2.4,0.4c0.5,0.7,1,1.3,1.5,1.9C8.4,55.6,8.2,55.7,8.1,55.8z
			 M9,54.9c-0.4-0.4-0.7-0.8-1.1-1.3c0.3,0,0.7,0,1.1,0c0.4,0,0.7,0,1.1,0C9.7,54.1,9.4,54.5,9,54.9z M13.7,56
			c-0.1,0.6-0.3,1-0.6,1.1c-0.6,0.3-1.8-0.1-3.1-1.2c-0.1-0.1-0.3-0.3-0.5-0.4c0.5-0.6,1-1.2,1.5-1.9c0.9-0.1,1.7-0.2,2.4-0.4
			c0,0.1,0.1,0.3,0.1,0.4C13.8,54.5,13.8,55.4,13.7,56z M14.3,52.2c-0.1,0-0.2,0.1-0.3,0.1c-0.2-0.7-0.5-1.5-0.9-2.3
			c0.4-0.8,0.7-1.5,0.9-2.2c0.2,0.1,0.4,0.1,0.5,0.2c1.7,0.6,2.7,1.4,2.7,2.1C17.2,50.7,16.1,51.6,14.3,52.2z"/>
		<circle fill="#8E9DB2" cx="9" cy="50" r="1.6"/>
	</g>
	<g>
		<path fill="#8E9DB2" d="M22.9,44.8h4.6c0.8,0,1.4,0.1,1.9,0.3c0.9,0.4,1.4,1.2,1.4,2.3c0,0.6-0.1,1.1-0.4,1.5
			c-0.2,0.4-0.6,0.7-1,0.9c0.4,0.2,0.7,0.4,0.9,0.6c0.2,0.3,0.3,0.7,0.3,1.2l0,1.3c0,0.4,0,0.7,0.1,0.8c0.1,0.3,0.2,0.5,0.4,0.6v0.2
			h-1.6c0-0.1-0.1-0.2-0.1-0.3c0-0.1,0-0.4-0.1-0.8l-0.1-1.6c0-0.6-0.3-1.1-0.7-1.3c-0.3-0.1-0.7-0.2-1.2-0.2h-3.1v4.2h-1.3V44.8z
			 M27.3,49.3c0.6,0,1.1-0.1,1.5-0.4c0.4-0.3,0.5-0.7,0.5-1.4c0-0.7-0.3-1.2-0.8-1.4c-0.3-0.1-0.6-0.2-1.1-0.2h-3.3v3.4H27.3z"/>
		<path fill="#8E9DB2" d="M38.1,48.6c0.2,0.4,0.4,0.8,0.5,1.3c0.1,0.3,0.1,0.9,0.1,1.6h-5.3c0,0.7,0.2,1.3,0.5,1.8
			c0.3,0.4,0.8,0.7,1.5,0.7c0.6,0,1.1-0.2,1.5-0.6c0.2-0.2,0.4-0.5,0.5-0.8h1.2c0,0.3-0.1,0.6-0.3,0.9c-0.2,0.3-0.4,0.6-0.6,0.8
			c-0.4,0.4-0.8,0.6-1.4,0.7c-0.3,0.1-0.6,0.1-1,0.1c-0.9,0-1.7-0.3-2.3-1c-0.6-0.7-0.9-1.6-0.9-2.7c0-1.2,0.3-2.1,0.9-2.8
			c0.6-0.7,1.4-1.1,2.5-1.1c0.5,0,1,0.1,1.5,0.4C37.5,47.9,37.8,48.2,38.1,48.6z M37.4,50.5c0-0.5-0.2-0.9-0.3-1.3
			c-0.3-0.6-0.9-0.9-1.7-0.9c-0.6,0-1,0.2-1.4,0.6c-0.4,0.4-0.6,0.9-0.6,1.5H37.4z"/>
		<path fill="#8E9DB2" d="M44,50.3c0.3,0,0.5-0.2,0.6-0.4c0.1-0.1,0.1-0.3,0.1-0.5c0-0.4-0.1-0.7-0.4-0.9c-0.3-0.2-0.7-0.3-1.3-0.3
			c-0.6,0-1.1,0.2-1.3,0.5c-0.1,0.2-0.2,0.5-0.3,0.8h-1.1c0-0.9,0.3-1.5,0.9-1.9c0.6-0.3,1.2-0.5,1.9-0.5c0.8,0,1.5,0.2,2.1,0.5
			c0.5,0.3,0.8,0.8,0.8,1.5v4.2c0,0.1,0,0.2,0.1,0.3c0.1,0.1,0.2,0.1,0.3,0.1c0.1,0,0.1,0,0.2,0c0.1,0,0.1,0,0.2,0v0.9
			c-0.2,0.1-0.3,0.1-0.4,0.1c-0.1,0-0.2,0-0.4,0c-0.4,0-0.7-0.1-0.9-0.4c-0.1-0.2-0.2-0.4-0.2-0.7c-0.2,0.3-0.6,0.6-1.1,0.8
			c-0.5,0.2-1,0.4-1.5,0.4c-0.7,0-1.2-0.2-1.6-0.6s-0.6-0.9-0.6-1.5c0-0.7,0.2-1.2,0.6-1.6c0.4-0.4,1-0.6,1.6-0.7L44,50.3z
			 M42.4,53.9c0.4,0,0.8-0.1,1.2-0.3c0.7-0.3,1-0.9,1-1.6v-1c-0.1,0.1-0.3,0.2-0.6,0.2c-0.2,0.1-0.5,0.1-0.7,0.1l-0.7,0.1
			c-0.4,0.1-0.8,0.2-1,0.3c-0.4,0.2-0.6,0.5-0.6,1c0,0.4,0.1,0.6,0.4,0.8C41.7,53.8,42,53.9,42.4,53.9z"/>
		<path fill="#8E9DB2" d="M53.5,49.9h-1.2c-0.1-0.4-0.2-0.8-0.5-1.1c-0.3-0.3-0.7-0.4-1.2-0.4c-0.8,0-1.3,0.4-1.7,1.1
			c-0.2,0.5-0.3,1.1-0.3,1.8c0,0.7,0.2,1.3,0.5,1.8c0.3,0.5,0.8,0.7,1.4,0.7c0.5,0,0.9-0.2,1.2-0.5c0.3-0.3,0.5-0.7,0.6-1.3h1.2
			c-0.1,1-0.5,1.7-1,2.1c-0.5,0.4-1.2,0.7-2.1,0.7c-0.9,0-1.7-0.3-2.3-1c-0.6-0.7-0.8-1.5-0.8-2.6c0-1.3,0.3-2.3,0.9-3
			c0.6-0.7,1.4-1.1,2.3-1.1c0.8,0,1.5,0.2,2,0.6C53.1,48.2,53.4,48.9,53.5,49.9z"/>
		<path fill="#8E9DB2" d="M55,45.4h1.2v2h1.2v1h-1.2v4.7c0,0.3,0.1,0.4,0.3,0.5c0.1,0,0.3,0.1,0.5,0.1c0.1,0,0.1,0,0.2,0
			c0.1,0,0.1,0,0.2,0v1c-0.1,0-0.3,0.1-0.4,0.1c-0.2,0-0.3,0-0.5,0c-0.6,0-0.9-0.1-1.2-0.4c-0.2-0.3-0.3-0.7-0.3-1.1v-4.8h-1v-1h1
			V45.4z"/>
		<path fill="#8E9DB2" d="M62.6,44.8h1.6l5,8v-8h1.3v9.9h-1.5l-5.1-8v8h-1.3V44.8z"/>
		<path fill="#8E9DB2" d="M76.2,50.3c0.3,0,0.5-0.2,0.6-0.4c0.1-0.1,0.1-0.3,0.1-0.5c0-0.4-0.1-0.7-0.4-0.9
			c-0.3-0.2-0.7-0.3-1.3-0.3c-0.6,0-1.1,0.2-1.3,0.5c-0.1,0.2-0.2,0.5-0.3,0.8h-1.1c0-0.9,0.3-1.5,0.9-1.9c0.6-0.3,1.2-0.5,1.9-0.5
			c0.8,0,1.5,0.2,2.1,0.5c0.5,0.3,0.8,0.8,0.8,1.5v4.2c0,0.1,0,0.2,0.1,0.3c0.1,0.1,0.2,0.1,0.3,0.1c0.1,0,0.1,0,0.2,0
			c0.1,0,0.1,0,0.2,0v0.9c-0.2,0.1-0.3,0.1-0.4,0.1c-0.1,0-0.2,0-0.4,0c-0.4,0-0.7-0.1-0.9-0.4c-0.1-0.2-0.2-0.4-0.2-0.7
			c-0.2,0.3-0.6,0.6-1.1,0.8c-0.5,0.2-1,0.4-1.5,0.4c-0.7,0-1.2-0.2-1.6-0.6c-0.4-0.4-0.6-0.9-0.6-1.5c0-0.7,0.2-1.2,0.6-1.6
			c0.4-0.4,1-0.6,1.6-0.7L76.2,50.3z M74.6,53.9c0.4,0,0.8-0.1,1.2-0.3c0.7-0.3,1-0.9,1-1.6v-1c-0.1,0.1-0.3,0.2-0.6,0.2
			c-0.2,0.1-0.5,0.1-0.7,0.1l-0.7,0.1c-0.4,0.1-0.8,0.2-1,0.3c-0.4,0.2-0.6,0.5-0.6,1c0,0.4,0.1,0.6,0.4,0.8
			C73.9,53.8,74.2,53.9,74.6,53.9z"/>
		<path fill="#8E9DB2" d="M80.3,45.4h1.2v2h1.2v1h-1.2v4.7c0,0.3,0.1,0.4,0.3,0.5c0.1,0,0.3,0.1,0.5,0.1c0.1,0,0.1,0,0.2,0
			c0.1,0,0.1,0,0.2,0v1c-0.1,0-0.3,0.1-0.4,0.1c-0.2,0-0.3,0-0.5,0c-0.6,0-0.9-0.1-1.2-0.4c-0.2-0.3-0.3-0.7-0.3-1.1v-4.8h-1v-1h1
			V45.4z"/>
		<path fill="#8E9DB2" d="M83.9,44.8h1.2v1.4h-1.2V44.8z M83.9,47.5h1.2v7.2h-1.2V47.5z"/>
		<path fill="#8E9DB2" d="M87.5,47.5l1.9,5.9l2-5.9h1.3l-2.7,7.2h-1.3l-2.7-7.2H87.5z"/>
		<path fill="#8E9DB2" d="M99.4,48.6c0.2,0.4,0.4,0.8,0.5,1.3c0.1,0.3,0.1,0.9,0.1,1.6h-5.3c0,0.7,0.2,1.3,0.5,1.8
			c0.3,0.4,0.8,0.7,1.5,0.7c0.6,0,1.1-0.2,1.5-0.6c0.2-0.2,0.4-0.5,0.5-0.8h1.2c0,0.3-0.1,0.6-0.3,0.9c-0.2,0.3-0.4,0.6-0.6,0.8
			c-0.4,0.4-0.8,0.6-1.4,0.7c-0.3,0.1-0.6,0.1-1,0.1c-0.9,0-1.7-0.3-2.3-1c-0.6-0.7-0.9-1.6-0.9-2.7c0-1.2,0.3-2.1,0.9-2.8
			c0.6-0.7,1.4-1.1,2.5-1.1c0.5,0,1,0.1,1.5,0.4C98.8,47.9,99.2,48.2,99.4,48.6z M98.8,50.5c0-0.5-0.2-0.9-0.3-1.3
			c-0.3-0.6-0.9-0.9-1.7-0.9c-0.6,0-1,0.2-1.4,0.6c-0.4,0.4-0.6,0.9-0.6,1.5H98.8z"/>
	</g>
</g>
</svg>
