<?xml version="1.0" encoding="utf-8"?>
<!-- Generator: Adobe Illustrator 18.1.1, SVG Export Plug-In . SVG Version: 6.00 Build 0)  -->
<svg version="1.1" id="Layer_1" xmlns="http://www.w3.org/2000/svg" xmlns:xlink="http://www.w3.org/1999/xlink" x="0px" y="0px"
	 viewBox="0 0 100 100" enable-background="new 0 0 100 100" xml:space="preserve">
<g>
	<g>
		<path fill="#42B682" d="M30.9,33.3h7.7L19.3,66.7L0,33.3h7.6h7.1l4.5,7.7l4.4-7.7H30.9z"/>
		<path fill="#8190A5" d="M0,33.3l19.3,33.3l19.3-33.3h-7.7l-11.6,20l-11.7-20H0z"/>
		<path fill="#38475C" d="M7.6,33.3l11.7,20.1l11.6-20.1h-7.1l-4.4,7.7l-4.5-7.7H7.6z"/>
	</g>
	<g>
		<path fill="#38475C" d="M43.4,42.1l4.5,13.4l4.5-13.4h2.4L49,57.9h-2.3L41,42.1H43.4z"/>
		<path fill="#38475C" d="M57.7,46.4v7.6c0,0.6,0.1,1.1,0.3,1.4c0.3,0.7,1,1,1.9,1c1.3,0,2.3-0.6,2.8-1.8c0.3-0.6,0.4-1.5,0.4-2.7
			v-5.7h1.9v11.5h-1.8l0-1.7c-0.3,0.4-0.6,0.8-0.9,1.1c-0.7,0.6-1.6,0.9-2.7,0.9c-1.6,0-2.8-0.5-3.4-1.6c-0.3-0.6-0.5-1.4-0.5-2.4
			v-7.8H57.7z"/>
		<path fill="#38475C" d="M76.9,48.2c0.4,0.6,0.6,1.3,0.8,2c0.1,0.5,0.2,1.4,0.2,2.5h-8.4c0,1.2,0.3,2.1,0.8,2.8
			c0.5,0.7,1.3,1.1,2.4,1.1c1,0,1.8-0.3,2.4-1c0.3-0.4,0.6-0.8,0.7-1.3h1.9c-0.1,0.4-0.2,0.9-0.5,1.4c-0.3,0.5-0.6,0.9-1,1.3
			c-0.6,0.6-1.3,1-2.2,1.2c-0.5,0.1-1,0.2-1.6,0.2c-1.4,0-2.6-0.5-3.6-1.6c-1-1-1.5-2.5-1.5-4.4c0-1.8,0.5-3.3,1.5-4.5
			c1-1.2,2.3-1.7,3.9-1.7c0.8,0,1.6,0.2,2.4,0.6C75.9,47.1,76.5,47.6,76.9,48.2z M75.8,51.3c-0.1-0.8-0.3-1.5-0.5-2
			c-0.5-0.9-1.4-1.4-2.7-1.4c-0.9,0-1.6,0.3-2.2,1c-0.6,0.6-0.9,1.5-1,2.4H75.8z"/>
		<path fill="#38475C" d="M80.7,55.6h2.2v2.3h-2.2V55.6z"/>
		<path fill="#38475C" d="M84.5,60.8c0.9,0,1.4-0.1,1.6-0.2c0.2-0.1,0.3-0.5,0.3-1.2v-13h1.9v13.2c0,0.8-0.1,1.5-0.4,1.9
			c-0.5,0.7-1.3,1.1-2.6,1.1c-0.1,0-0.2,0-0.3,0c-0.1,0-0.3,0-0.5,0V60.8z M88.3,44.4h-1.9v-2.2h1.9V44.4z"/>
		<path fill="#38475C" d="M92.4,54.3c0.1,0.6,0.2,1.1,0.5,1.5c0.5,0.6,1.3,0.9,2.5,0.9c0.7,0,1.3-0.2,1.9-0.5
			c0.5-0.3,0.8-0.8,0.8-1.4c0-0.5-0.2-0.9-0.7-1.1c-0.3-0.2-0.8-0.3-1.7-0.5l-1.5-0.4c-1-0.2-1.7-0.5-2.2-0.8
			c-0.8-0.5-1.2-1.2-1.2-2.2c0-1.1,0.4-2,1.2-2.6c0.8-0.7,1.8-1,3.2-1c1.7,0,3,0.5,3.8,1.5c0.5,0.6,0.7,1.3,0.7,2c0,0,0,0,0,0.1
			h-1.8c0-0.4-0.2-0.8-0.5-1.2c-0.4-0.5-1.2-0.8-2.3-0.8c-0.7,0-1.3,0.1-1.7,0.4c-0.4,0.3-0.6,0.6-0.6,1.1c0,0.5,0.2,0.9,0.7,1.2
			c0.3,0.2,0.7,0.3,1.3,0.5l1.3,0.3c1.4,0.3,2.3,0.7,2.8,1c0.8,0.5,1.1,1.3,1.1,2.3c0,1-0.4,1.9-1.2,2.7c-0.8,0.7-2,1.1-3.6,1.1
			c-1.7,0-2.9-0.4-3.6-1.2c-0.7-0.8-1.1-1.7-1.1-2.9H92.4z"/>
	</g>
</g>
</svg>
