<?xml version="1.0" encoding="utf-8"?>
<!-- Generator: Adobe Illustrator 16.0.0, SVG Export Plug-In . SVG Version: 6.00 Build 0)  -->
<!DOCTYPE svg PUBLIC "-//W3C//DTD SVG 1.1//EN" "http://www.w3.org/Graphics/SVG/1.1/DTD/svg11.dtd">
<svg version="1.1" id="Layer_1" xmlns="http://www.w3.org/2000/svg" xmlns:xlink="http://www.w3.org/1999/xlink" x="0px" y="0px"
	 width="442.667px" height="352.286px" viewBox="0 0 442.667 352.286" enable-background="new 0 0 442.667 352.286"
	 xml:space="preserve">
<g>
	<defs>
		<rect id="SVGID_1_" width="442.667" height="352.286"/>
	</defs>
	<clipPath id="SVGID_2_">
		<use xlink:href="#SVGID_1_"  overflow="visible"/>
	</clipPath>
	<g clip-path="url(#SVGID_2_)">
		<defs>
			<rect id="SVGID_3_" width="442.667" height="352.286"/>
		</defs>
		<clipPath id="SVGID_4_">
			<use xlink:href="#SVGID_3_"  overflow="visible"/>
		</clipPath>
		<path clip-path="url(#SVGID_4_)" fill="#E4E4ED" d="M442.666,225.954c0,3.286-13.523,5.95-30.208,5.95
			c-16.684,0-30.208-2.664-30.208-5.95s13.524-5.949,30.208-5.949C429.143,220.005,442.666,222.668,442.666,225.954"/>
		<path clip-path="url(#SVGID_4_)" d="M427.111,225.954h4.381L382.323,67.598h-4.381l7.76,24.993h-24.551l-7.761-24.993h-4.38
			l49.169,158.356h4.381l-6.443-20.751h24.551L427.111,225.954z M379.386,151.313h24.55l6.866,22.112H386.25L379.386,151.313z
			 M402.435,146.48h-24.55l-6.867-22.111h24.552L402.435,146.48z M387.203,97.424l6.865,22.112h-24.551l-6.866-22.112H387.203z
			 M394.616,200.37l-6.864-22.111h24.551l6.865,22.111H394.616z"/>
	</g>
	<g clip-path="url(#SVGID_2_)">
		<defs>
			<rect id="SVGID_5_" x="57.856" y="31.808" width="328.289" height="206.661"/>
		</defs>
		<clipPath id="SVGID_6_">
			<use xlink:href="#SVGID_5_"  overflow="visible"/>
		</clipPath>
		
			<linearGradient id="SVGID_7_" gradientUnits="userSpaceOnUse" x1="-4.882812e-04" y1="352.2852" x2="0.9995" y2="352.2852" gradientTransform="matrix(0 -206.6613 -206.6613 0 73025.9141 238.4111)">
			<stop  offset="0" style="stop-color:#FFFFFF"/>
			<stop  offset="1" style="stop-color:#DBDAED"/>
		</linearGradient>
		<rect x="57.856" y="31.808" clip-path="url(#SVGID_6_)" fill="url(#SVGID_7_)" width="328.289" height="206.661"/>
	</g>
	<g clip-path="url(#SVGID_2_)">
		<defs>
			<rect id="SVGID_8_" width="442.667" height="352.286"/>
		</defs>
		<clipPath id="SVGID_9_">
			<use xlink:href="#SVGID_8_"  overflow="visible"/>
		</clipPath>
		<polyline clip-path="url(#SVGID_9_)" fill="none" stroke="#000000" stroke-width="0.5" stroke-miterlimit="10" points="
			57.856,238.47 57.856,31.809 386.144,31.809 386.144,238.47 		"/>
		<rect x="224.859" y="109.086" clip-path="url(#SVGID_9_)" fill="#BEBED3" width="140.807" height="5.805"/>
		
			<rect x="224.859" y="109.086" clip-path="url(#SVGID_9_)" fill="none" stroke="#000000" stroke-width="0.5" stroke-miterlimit="10" width="140.807" height="5.805"/>
		<rect x="224.859" y="128.42" clip-path="url(#SVGID_9_)" fill="#BEBED3" width="140.807" height="5.805"/>
		
			<rect x="224.859" y="128.42" clip-path="url(#SVGID_9_)" fill="none" stroke="#000000" stroke-width="0.5" stroke-miterlimit="10" width="140.807" height="5.805"/>
		<rect x="224.859" y="147.753" clip-path="url(#SVGID_9_)" fill="#BEBED3" width="140.807" height="5.805"/>
		
			<rect x="224.859" y="147.753" clip-path="url(#SVGID_9_)" fill="none" stroke="#000000" stroke-width="0.5" stroke-miterlimit="10" width="140.807" height="5.805"/>
		<rect x="224.859" y="89.753" clip-path="url(#SVGID_9_)" fill="#BEBED3" width="140.807" height="5.805"/>
		
			<rect x="224.859" y="89.753" clip-path="url(#SVGID_9_)" fill="none" stroke="#000000" stroke-width="0.5" stroke-miterlimit="10" width="140.807" height="5.805"/>
		<rect x="224.859" y="70.42" clip-path="url(#SVGID_9_)" fill="#BEBED3" width="140.807" height="5.805"/>
		
			<rect x="224.859" y="70.42" clip-path="url(#SVGID_9_)" fill="none" stroke="#000000" stroke-width="0.5" stroke-miterlimit="10" width="140.807" height="5.805"/>
		<rect x="57.856" y="31.677" clip-path="url(#SVGID_9_)" fill="#33328C" width="328.288" height="21.257"/>
		
			<rect x="57.856" y="31.677" clip-path="url(#SVGID_9_)" fill="none" stroke="#000000" stroke-width="0.5" stroke-miterlimit="10" width="328.288" height="21.257"/>
		<g opacity="0.2" clip-path="url(#SVGID_9_)">
			<g>
				<defs>
					<rect id="SVGID_10_" x="275.489" y="119.718" width="48.013" height="64.785"/>
				</defs>
				<clipPath id="SVGID_11_">
					<use xlink:href="#SVGID_10_"  overflow="visible"/>
				</clipPath>
				<path clip-path="url(#SVGID_11_)" fill="#E4E4ED" d="M275.488,123.493c0,0,9.513,18.511,27.263,24.261l9.25,36.75l11.501-17.684
					l-7.803-25.352c0,0-17.198-2.444-22.448-6.33c-5.25-3.885-16-15.42-16-15.42L275.488,123.493z"/>
			</g>
		</g>
		<g opacity="0.2" clip-path="url(#SVGID_9_)">
			<g>
				<defs>
					<rect id="SVGID_12_" x="96.667" y="31.677" width="27" height="54.743"/>
				</defs>
				<clipPath id="SVGID_13_">
					<use xlink:href="#SVGID_12_"  overflow="visible"/>
				</clipPath>
				<path clip-path="url(#SVGID_13_)" fill="#E4E4ED" d="M96.667,78.92c0,0,8.167-29.653,20.833-47.243l6.167,0.076L104,86.42
					L96.667,78.92z"/>
			</g>
		</g>
		<g opacity="0.2" clip-path="url(#SVGID_9_)">
			<g>
				<defs>
					<rect id="SVGID_14_" x="164.167" y="31.753" width="27.833" height="36.666"/>
				</defs>
				<clipPath id="SVGID_15_">
					<use xlink:href="#SVGID_14_"  overflow="visible"/>
				</clipPath>
				<path clip-path="url(#SVGID_15_)" fill="#E4E4ED" d="M179,67.42c0,0-6.167-21.167-14.833-35.667l11.166,0.167L192,68.419
					L179,67.42z"/>
			</g>
		</g>
		<polygon clip-path="url(#SVGID_9_)" fill="#E4E4ED" points="216.327,140.87 187.322,149.085 58.083,185.849 58.338,153.558 		"/>
		<path clip-path="url(#SVGID_9_)" fill="#33328C" d="M25.685,135.713c0,0,22.932-5.83,28.55-27.365l4.103,3.285
			c0,0-3.202,19.025-22.682,28.538L25.685,135.713z"/>
		<path clip-path="url(#SVGID_9_)" fill="none" stroke="#000000" stroke-width="0.5" stroke-miterlimit="10" d="M25.685,135.713
			c0,0,22.932-5.83,28.55-27.365l4.103,3.285c0,0-3.202,19.025-22.682,28.538L25.685,135.713z"/>
		
			<rect x="51.635" y="71.842" transform="matrix(0.9828 -0.1847 0.1847 0.9828 -18.8074 26.1089)" clip-path="url(#SVGID_9_)" fill="#FFFFFF" width="158.264" height="84.366"/>
		
			<rect x="51.635" y="71.842" transform="matrix(0.9828 -0.1847 0.1847 0.9828 -18.8074 26.1089)" clip-path="url(#SVGID_9_)" fill="none" stroke="#000000" stroke-width="0.5" stroke-miterlimit="10" width="158.264" height="84.366"/>
		<path clip-path="url(#SVGID_9_)" fill="#E4E4ED" d="M73.991,265.901c0,3.286-16.563,5.95-36.996,5.95
			c-20.432,0-36.995-2.664-36.995-5.95s16.563-5.95,36.995-5.95C57.428,259.951,73.991,262.615,73.991,265.901"/>
		<path clip-path="url(#SVGID_9_)" fill="#FFFFFF" d="M78.495,134.584c-0.845-1.748-3.234-0.782-5.159,0.393
			c0.224-0.722,0.327-1.493-0.245-1.515c-1.083-0.042-2.459,3.463-2.459,3.463l-0.387,3.208l2.846,1.335
			C74.539,139.41,79.995,137.685,78.495,134.584"/>
		<path clip-path="url(#SVGID_9_)" fill="none" stroke="#000000" stroke-width="0.5" stroke-miterlimit="10" d="M78.495,134.584
			c-0.845-1.748-3.234-0.782-5.159,0.393c0.224-0.722,0.327-1.493-0.245-1.515c-1.083-0.042-2.459,3.463-2.459,3.463l-0.387,3.208
			l2.846,1.335C74.539,139.41,79.995,137.685,78.495,134.584z"/>
		<path clip-path="url(#SVGID_9_)" d="M18.097,259.951l6.957,2.735c0.156,0.062,0.263,0.165,0.326,0.286
			c0.063,0.123,0.081,0.263,0.059,0.396c-0.011,0.065-0.033,0.131-0.064,0.189c-0.092,0.181-0.272,0.317-0.524,0.327l-12.344,0.49
			l0.352-4.063L18.097,259.951z"/>
		<path clip-path="url(#SVGID_9_)" d="M12.684,263.333l-0.177,1.042l12.344-0.49c0.336-0.014,0.543-0.252,0.588-0.517
			c0.002-0.013-0.001-0.023,0-0.035H12.684z"/>
		<path clip-path="url(#SVGID_9_)" fill="#FFFFFF" d="M44.916,172.949c0,0,23.396,40.138,20.946,87.002l-5.595,1.099
			c0,0-4.135-44.338-24.793-66.953c0,0-1.595,33.895-16.496,66.201l-5.862,0.007c0,0,12.634-58.564,4.801-84.612l17.706-8.873
			L44.916,172.949z"/>
		<path clip-path="url(#SVGID_9_)" fill="none" stroke="#000000" stroke-width="0.5" stroke-miterlimit="10" d="M44.916,172.949
			c0,0,23.396,40.138,20.946,87.002l-5.595,1.099c0,0-4.135-44.338-24.793-66.953c0,0-1.595,33.895-16.496,66.201l-5.862,0.007
			c0,0,12.634-58.564,4.801-84.612l17.706-8.873L44.916,172.949z"/>
		<path clip-path="url(#SVGID_9_)" fill="#FFFFFF" d="M34.943,120.954c0,0-1.16-1.987-1.954-1.104
			c-0.794,0.882-0.121,3.395,1.483,3.958c0,0-0.158,0.616-1.522,1.691c-1.364,1.076-3.85,0.845-3.85,0.845s-1.84,5.009-2.165,6.336
			c0,0,2.596,0.705,4.651,0.193c2.055-0.51,3.357,0.756,3.357,0.756l0.054-3.905c0,0,1.746,0.744,3.416-0.526
			c1.669-1.27,4.825-9.55,1.44-14.153c0,0-3.583-0.816-4.47,1.32c-0.65,1.565,0.161,4.435,0.161,4.435L34.943,120.954z"/>
		<path clip-path="url(#SVGID_9_)" fill="none" stroke="#000000" stroke-width="0.5" stroke-miterlimit="10" d="M34.943,120.954
			c0,0-1.16-1.987-1.954-1.104c-0.794,0.882-0.121,3.395,1.483,3.958c0,0-0.158,0.616-1.522,1.691
			c-1.364,1.076-3.85,0.845-3.85,0.845s-1.84,5.009-2.165,6.336c0,0,2.596,0.705,4.651,0.193c2.055-0.51,3.357,0.756,3.357,0.756
			l0.054-3.905c0,0,1.746,0.744,3.416-0.526c1.669-1.27,4.825-9.55,1.44-14.153c0,0-3.583-0.816-4.47,1.32
			c-0.65,1.565,0.161,4.435,0.161,4.435L34.943,120.954z"/>
		<path clip-path="url(#SVGID_9_)" d="M39.854,115.045c0,0,3.45-0.247,2.5-3.425c-0.631-2.111-5.209-4.653-9.029-3.914
			c-3.053,0.591-3.851,2.301-3.851,2.301s-3.276-0.347-5.072,2.24c-1.795,2.587,0.106,6.441-0.263,9.292
			c-0.37,2.851-3.432,3.697-1.584,5.439c1.847,1.741,9.186,3.061,11.245,1.266s0.674-4.436,0.674-4.436s-1.694-1.704-1.413-2.955
			c0.159-0.704,0.81-1.162,1.883,0.422l0.863-0.105c0,0,0.068-2.423,0.72-4.142C37.178,115.309,39.854,115.045,39.854,115.045"/>
		<path clip-path="url(#SVGID_9_)" fill="#33328C" d="M17.917,175.693c0,0-2.531-25.521,1.576-34.886
			c4.106-9.365,5.94-9.481,13.523-9.048s13.397,6.882,18.783,8.683c5.386,1.801,11.553,0.806,18.832-3.518l2.459,4.544
			c0,0-7.25,5.037-13.833,6.952c-6.584,1.916-16.571-2.31-16.571-2.31s0.281,13.469,2.23,26.839
			C44.917,172.949,29.447,179.486,17.917,175.693"/>
		<path clip-path="url(#SVGID_9_)" fill="none" stroke="#000000" stroke-width="0.5" stroke-miterlimit="10" d="M17.917,175.693
			c0,0-2.531-25.521,1.576-34.886c4.106-9.365,5.94-9.481,13.523-9.048s13.397,6.882,18.783,8.683
			c5.386,1.801,11.553,0.806,18.832-3.518l2.459,4.544c0,0-7.25,5.037-13.833,6.952c-6.584,1.916-16.571-2.31-16.571-2.31
			s0.281,13.469,2.23,26.839C44.917,172.949,29.447,179.486,17.917,175.693z"/>
		<g opacity="0.3" clip-path="url(#SVGID_9_)">
			<g>
				<defs>
					<rect id="SVGID_16_" x="38.436" y="144.524" width="4.537" height="11.768"/>
				</defs>
				<clipPath id="SVGID_17_">
					<use xlink:href="#SVGID_16_"  overflow="visible"/>
				</clipPath>
				<path clip-path="url(#SVGID_17_)" d="M38.435,144.524l4.537,11.768c-0.512-6.533-0.451-10.526-0.451-10.526L38.435,144.524z"/>
			</g>
		</g>
		<path clip-path="url(#SVGID_9_)" d="M65.862,259.951l6.957,2.735c0.156,0.062,0.264,0.165,0.326,0.286
			c0.063,0.123,0.081,0.263,0.059,0.396c-0.027,0.155-0.108,0.302-0.239,0.397c-0.093,0.069-0.209,0.113-0.348,0.119l-12.424,0.518
			l-0.142-3.178L65.862,259.951z"/>
		<path clip-path="url(#SVGID_9_)" d="M60.449,263.333l0.083,1.042l12.085-0.49c0.335-0.014,0.542-0.252,0.587-0.517
			c0.002-0.013-0.001-0.023,0-0.035H60.449z"/>
		<path clip-path="url(#SVGID_9_)" fill="#E4E4ED" d="M31.91,218.86c3.001-14.864,3.318-25.371,3.318-25.371l-3.685-3.277
			C31.543,190.212,32.313,204.563,31.91,218.86"/>
		<path clip-path="url(#SVGID_9_)" fill="#E4E4ED" d="M369.83,271.852c0,3.286-16.562,5.95-36.995,5.95s-36.995-2.664-36.995-5.95
			s16.562-5.95,36.995-5.95S369.83,268.565,369.83,271.852"/>
		<path clip-path="url(#SVGID_9_)" fill="#FFFFFF" d="M279.662,120.83c0,0,0.921-5.826-0.412-6.743
			c-1.334-0.917-1.476,2.69-1.476,2.69s-5.633-6.107-8.05-3.44c-2.416,2.667,3.441,7.886,5.764,10.156l4.174,1.638V120.83z"/>
		<path clip-path="url(#SVGID_9_)" fill="none" stroke="#000000" stroke-width="0.5" stroke-miterlimit="10" d="M279.662,120.83
			c0,0,0.921-5.826-0.412-6.743c-1.334-0.917-1.476,2.69-1.476,2.69s-5.633-6.107-8.05-3.44c-2.416,2.667,3.441,7.886,5.764,10.156
			l4.174,1.638V120.83z"/>
		<path clip-path="url(#SVGID_9_)" fill="#FFFFFF" d="M354.915,158.373l-0.416,3.026c0,0-1.916,5.021-0.999,6.105
			c0.916,1.083,1.581-3.417,2.124-2.25c0.542,1.166,1.146,5.27,2.313,5.937c1.166,0.666,4.688-4.562,0.726-11.587L354.915,158.373z"
			/>
		<path clip-path="url(#SVGID_9_)" fill="none" stroke="#000000" stroke-width="0.5" stroke-miterlimit="10" d="M354.915,158.373
			l-0.416,3.026c0,0-1.916,5.021-0.999,6.105c0.916,1.083,1.581-3.417,2.124-2.25c0.542,1.166,1.146,5.27,2.313,5.937
			c1.166,0.666,4.688-4.562,0.726-11.587L354.915,158.373z"/>
		<path clip-path="url(#SVGID_9_)" fill="#33328C" d="M323.169,144.746l3.414-7.742c0,0,23.741-0.99,32.08,22.601l-4.164,1.795
			C354.499,161.399,345.852,141.217,323.169,144.746"/>
		<path clip-path="url(#SVGID_9_)" fill="none" stroke="#000000" stroke-width="0.5" stroke-miterlimit="10" d="M323.169,144.746
			l3.414-7.742c0,0,23.741-0.99,32.08,22.601l-4.164,1.795C354.499,161.399,345.852,141.217,323.169,144.746z"/>
		<path clip-path="url(#SVGID_9_)" d="M353.073,253.431l-1.348,11.301c-0.028,0.234,0.095,0.406,0.262,0.487
			c0.225,0.107,0.527,0.053,0.655-0.236l6.811-13.227l-4.434-2.274l-3.6,1.326L353.073,253.431z"/>
		<path clip-path="url(#SVGID_9_)" d="M351.987,265.219c0.225,0.107,0.527,0.053,0.655-0.236l6.811-13.227l-0.683-0.351
			l-6.995,13.586C351.822,265.092,351.893,265.173,351.987,265.219"/>
		<path clip-path="url(#SVGID_9_)" d="M311.29,267.713l-10.664,3.975c-0.222,0.082-0.317,0.27-0.313,0.455
			c0.006,0.249,0.193,0.494,0.51,0.475l14.877,0.001l-0.008-4.982l-2.826-2.595L311.29,267.713z"/>
		<path clip-path="url(#SVGID_9_)" fill="#FFFFFF" d="M311.557,187.754c0,0-12.718,50.068-0.267,79.959l4.401-0.077
			c0,0-8.076-48.697,5.934-67.044c13.7-17.941,8.375,0.312,8.375,0.312s-4,31.23,23.074,52.526l1.945-3.949
			c0,0-23.687-26.728-14.816-52.242c0.453-1.299-4.05-16.44-4.05-16.44L311.557,187.754z"/>
		<path clip-path="url(#SVGID_9_)" fill="none" stroke="#000000" stroke-width="0.5" stroke-miterlimit="10" d="M311.557,187.754
			c0,0-12.718,50.068-0.267,79.959l4.401-0.077c0,0-8.076-48.697,5.934-67.044c13.7-17.941,8.375,0.312,8.375,0.312
			s-4,31.23,23.074,52.526l1.945-3.949c0,0-23.687-26.728-14.816-52.242c0.453-1.299-4.05-16.44-4.05-16.44L311.557,187.754z"/>
		<path clip-path="url(#SVGID_9_)" fill="#E4E4ED" d="M340.203,197.24c0.338-0.973-2.089-9.663-3.338-14.001
			c-3.022,0.095-6.688,0.21-10.52,0.333l-14.788,4.182c0,0-2.89,12.438-4.517,28.626l8.209-1.5
			c1.275-5.53,3.254-10.379,6.083-14.083c13.699-17.94,8.667,0.108,8.667,0.108s-0.334,5.725,0.833,14.058l7.208-3.958
			C337.666,206.463,338.617,201.801,340.203,197.24"/>
		<path clip-path="url(#SVGID_9_)" fill="#FFFFFF" d="M309.923,178.67c0,0-5.048,13.084-11.673,28.788
			c0,0,35.301,13.296,49.838-9.704c0,0-5.347-16.955-10.074-25.226l-17.631-2.524L309.923,178.67z"/>
		<path clip-path="url(#SVGID_9_)" fill="none" stroke="#000000" stroke-width="0.5" stroke-miterlimit="10" d="M309.923,178.67
			c0,0-5.048,13.084-11.673,28.788c0,0,35.301,13.296,49.838-9.704c0,0-5.347-16.955-10.074-25.226l-17.631-2.524L309.923,178.67z"
			/>
		<path clip-path="url(#SVGID_9_)" fill="#FFFFFF" d="M312.375,125.78c0,0,1.159-1.987,1.953-1.104
			c0.794,0.882,0.121,3.395-1.481,3.958c0,0,0.157,0.616,1.521,1.691c1.364,1.076,3.851,0.845,3.851,0.845s1.841,5.009,2.164,6.336
			c0,0-2.596,0.705-4.65,0.194c-2.054-0.511-3.357,0.755-3.357,0.755l-1.129-3.817c0,0-0.671,0.657-2.341-0.614
			c-1.669-1.27-4.825-9.55-1.439-14.153c0,0,3.582-0.816,4.471,1.32c0.648,1.565-0.162,4.435-0.162,4.435L312.375,125.78z"/>
		<path clip-path="url(#SVGID_9_)" fill="none" stroke="#000000" stroke-width="0.5" stroke-miterlimit="10" d="M312.375,125.78
			c0,0,1.159-1.987,1.953-1.104c0.794,0.882,0.121,3.395-1.481,3.958c0,0,0.157,0.616,1.521,1.691
			c1.364,1.076,3.851,0.845,3.851,0.845s1.841,5.009,2.164,6.336c0,0-2.596,0.705-4.65,0.194c-2.054-0.511-3.357,0.755-3.357,0.755
			l-1.129-3.817c0,0-0.671,0.657-2.341-0.614c-1.669-1.27-4.825-9.55-1.439-14.153c0,0,3.582-0.816,4.471,1.32
			c0.648,1.565-0.162,4.435-0.162,4.435L312.375,125.78z"/>
		<path clip-path="url(#SVGID_9_)" fill="#33328C" d="M326.583,137.004c0,0-8.639-0.488-16.193-0.328
			c-7.557,0.161-25.565-7.436-30.728-15.846l-4.174,2.663c0,0,6.958,14.744,31.818,21.253c0,0,3.457,24.841,2.616,33.924
			c0,0,21.937,0.301,28.091-6.142C338.014,172.528,335.25,146.254,326.583,137.004"/>
		<path clip-path="url(#SVGID_9_)" fill="none" stroke="#000000" stroke-width="0.5" stroke-miterlimit="10" d="M326.583,137.004
			c0,0-8.639-0.488-16.193-0.328c-7.557,0.161-25.565-7.436-30.728-15.846l-4.174,2.663c0,0,6.958,14.744,31.818,21.253
			c0,0,3.457,24.841,2.616,33.924c0,0,21.937,0.301,28.091-6.142C338.014,172.528,335.25,146.254,326.583,137.004z"/>
		<path clip-path="url(#SVGID_9_)" d="M319.514,118.718c0,0-0.419-4.631-6.342-3.631c-5.922,1-9.081,3.864-7.21,6.349
			s5.255,1.564,5.813,4.191c0.558,2.627-1.574,5.772,0.742,8.533c2.315,2.761-1.279,8.261,2.56,13.177
			c3.839,4.917,17.923,0,17.756-6.583s-6.25-6.167-8.917-10.5C321.25,125.92,324.195,122.099,319.514,118.718"/>
		<path clip-path="url(#SVGID_9_)" d="M300.312,272.143c0.006,0.249,0.193,0.494,0.511,0.475l14.877,0.001l-0.001-0.767h-15.282
			C300.35,271.938,300.31,272.038,300.312,272.143"/>
		<g opacity="0.3" clip-path="url(#SVGID_9_)">
			<g>
				<defs>
					<rect id="SVGID_18_" x="307.306" y="144.745" width="4.847" height="15.335"/>
				</defs>
				<clipPath id="SVGID_19_">
					<use xlink:href="#SVGID_18_"  overflow="visible"/>
				</clipPath>
				<path clip-path="url(#SVGID_19_)" d="M307.306,144.746c0,0,1.009,7.242,1.804,15.334c1.035-6.529,3.044-14.096,3.044-14.096
					L307.306,144.746z"/>
			</g>
		</g>
		<path clip-path="url(#SVGID_9_)" fill="#E4E4ED" d="M224.387,346.336c0,3.286-16.562,5.95-36.995,5.95s-36.996-2.664-36.996-5.95
			s16.564-5.95,36.996-5.95S224.387,343.05,224.387,346.336"/>
		<path clip-path="url(#SVGID_9_)" fill="#BA77E5" d="M212.42,342.677l0.005,1.045l12.088,0.407c0.336,0.012,0.56-0.21,0.624-0.473
			c0.003-0.011,0.001-0.022,0.003-0.033L212.42,342.677z"/>
		<path clip-path="url(#SVGID_9_)" d="M158.33,333.535l0.244,7.471c0.006,0.168-0.047,0.308-0.134,0.414
			c-0.087,0.105-0.208,0.178-0.339,0.21c-0.065,0.016-0.133,0.021-0.2,0.017c-0.201-0.014-0.398-0.124-0.507-0.352l-5.341-11.14
			l3.978-1.055L158.33,333.535z"/>
		<path clip-path="url(#SVGID_9_)" d="M153.079,329.904l-1.026,0.251l5.34,11.14c0.146,0.302,0.447,0.398,0.708,0.335
			c0.011-0.003,0.021-0.011,0.032-0.014L153.079,329.904z"/>
		<path clip-path="url(#SVGID_9_)" d="M218.068,339.705l6.734,3.244c0.152,0.072,0.251,0.185,0.305,0.311s0.062,0.267,0.029,0.397
			c-0.038,0.152-0.131,0.293-0.269,0.38c-0.097,0.062-0.217,0.097-0.355,0.092l-12.088-0.407l-0.017-3.336L218.068,339.705z"/>
		<path clip-path="url(#SVGID_9_)" fill="#FFFFFF" d="M195.115,259.254c0,0,24.451,31.15,23.582,80.754l-6.29,0.378
			c0,0-5.542-47.106-25.249-61.3c0,0,4.469,38.182-28.78,55.935l-2.348-5.919c0,0,27.981-25.179,13.05-69.431l9.393-13.496
			L195.115,259.254z"/>
		<path clip-path="url(#SVGID_9_)" fill="none" stroke="#000000" stroke-width="0.5" stroke-miterlimit="10" d="M195.115,259.254
			c0,0,24.451,31.15,23.582,80.754l-6.29,0.378c0,0-5.542-47.106-25.249-61.3c0,0,4.469,38.182-28.78,55.935l-2.348-5.919
			c0,0,27.981-25.179,13.05-69.431l9.393-13.496L195.115,259.254z"/>
		<path clip-path="url(#SVGID_9_)" fill="#33328C" d="M174.46,221.679c0,0,20.112,1.099,27.612-21.227l4.704,1.778
			c0,0-2.967,17.163-19.086,23.968L174.46,221.679z"/>
		<path clip-path="url(#SVGID_9_)" fill="none" stroke="#000000" stroke-width="0.5" stroke-miterlimit="10" d="M174.46,221.679
			c0,0,20.112,1.099,27.612-21.227l4.704,1.778c0,0-2.967,17.163-19.086,23.968L174.46,221.679z"/>
		<path clip-path="url(#SVGID_9_)" fill="#FFFFFF" d="M180.746,209.76c0,0-1.16-1.987-1.954-1.104s-0.121,3.396,1.484,3.958
			c0,0-0.159,0.615-1.523,1.691c-1.364,1.075-3.85,0.845-3.85,0.845s-1.84,5.008-2.164,6.336c0,0,2.595,0.704,4.65,0.193
			c2.055-0.511,3.357,0.756,3.357,0.756l0.054-3.905c0,0,1.746,0.744,3.416-0.526c1.669-1.27,4.825-9.549,1.44-14.152
			c0,0-3.583-0.817-4.47,1.32c-0.649,1.564,0.161,4.435,0.161,4.435L180.746,209.76z"/>
		<path clip-path="url(#SVGID_9_)" fill="none" stroke="#000000" stroke-width="0.5" stroke-miterlimit="10" d="M180.746,209.76
			c0,0-1.16-1.987-1.954-1.104s-0.121,3.396,1.484,3.958c0,0-0.159,0.615-1.523,1.691c-1.364,1.075-3.85,0.845-3.85,0.845
			s-1.84,5.008-2.164,6.336c0,0,2.595,0.704,4.65,0.193c2.055-0.511,3.357,0.756,3.357,0.756l0.054-3.905
			c0,0,1.746,0.744,3.416-0.526c1.669-1.27,4.825-9.549,1.44-14.152c0,0-3.583-0.817-4.47,1.32
			c-0.649,1.564,0.161,4.435,0.161,4.435L180.746,209.76z"/>
		<path clip-path="url(#SVGID_9_)" d="M185.655,203.851c0,0,1.428-0.624,1.178-2.11s-2.429-6.486-7.151-5.321
			c-4.72,1.168-10.181,4-11.764,3.5s-0.342,6.25,0.829,9.5c1.17,3.25,4.086,6.324,6.753,6.579c2.667,0.256,6.238-2.038,5.953-2.933
			c-0.286-0.896-1.518-0.893-1.944-2.477c-0.426-1.585,0.979-1.43,1.944-0.3l0.63-0.492
			C182.083,209.797,180.393,202.447,185.655,203.851"/>
		<path clip-path="url(#SVGID_9_)" fill="#33328C" d="M187.957,221.775c0,0-11.624-4.409-16.957-0.841
			c-5.333,3.569-1.544,25.731-1.919,38.736c0,0,14.482,4.416,26.034-0.417c0,0-2.185-21.687-2.358-26.58
			c0,0,24.493,0.444,32.618-28.498l-5.5-1.422C219.875,202.754,212.663,229.578,187.957,221.775"/>
		<path clip-path="url(#SVGID_9_)" fill="none" stroke="#000000" stroke-width="0.5" stroke-miterlimit="10" d="M187.957,221.775
			c0,0-11.624-4.409-16.957-0.841c-5.333,3.569-1.544,25.731-1.919,38.736c0,0,14.482,4.416,26.034-0.417
			c0,0-2.185-21.687-2.358-26.58c0,0,24.493,0.444,32.618-28.498l-5.5-1.422C219.875,202.754,212.663,229.578,187.957,221.775z"/>
		<polygon clip-path="url(#SVGID_9_)" fill="#FFFFFF" points="196.948,197.043 204.431,154.736 238.964,159.311 232.633,201.74 		
			"/>
		<polygon clip-path="url(#SVGID_9_)" fill="none" stroke="#000000" stroke-width="0.5" stroke-miterlimit="10" points="
			196.948,197.043 204.431,154.736 238.964,159.311 232.633,201.74 		"/>
		<path clip-path="url(#SVGID_9_)" fill="#FFFFFF" d="M225.375,204.177c0,0,4.5-2.018,4.47-4.11
			c-0.032-2.094-3.379,0.862-3.379,0.862l-6.336-0.835l-0.254,2.66L225.375,204.177z"/>
		<path clip-path="url(#SVGID_9_)" fill="none" stroke="#000000" stroke-width="0.5" stroke-miterlimit="10" d="M225.375,204.177
			c0,0,4.5-2.018,4.47-4.11c-0.032-2.094-3.379,0.862-3.379,0.862l-6.336-0.835l-0.254,2.66L225.375,204.177z"/>
		<path clip-path="url(#SVGID_9_)" fill="#FFFFFF" d="M202.072,200.453c0,0-1.572-3.762-0.822-5.23s2.124,2.666,2.124,2.666
			l5.327,0.701l-1.924,3.64L202.072,200.453z"/>
		<path clip-path="url(#SVGID_9_)" fill="none" stroke="#000000" stroke-width="0.5" stroke-miterlimit="10" d="M202.072,200.453
			c0,0-1.572-3.762-0.822-5.23s2.124,2.666,2.124,2.666l5.327,0.701l-1.924,3.64L202.072,200.453z"/>
		<path clip-path="url(#SVGID_9_)" fill="#E4E4ED" d="M185.948,297.297c2.126-10.293,1.211-18.211,1.211-18.211l-5.825-2.999
			C181.333,276.087,184.213,287.132,185.948,297.297"/>
		<g opacity="0.3" clip-path="url(#SVGID_9_)">
			<g>
				<defs>
					<rect id="SVGID_20_" x="186.863" y="232.134" width="6.459" height="8.199"/>
				</defs>
				<clipPath id="SVGID_21_">
					<use xlink:href="#SVGID_20_"  overflow="visible"/>
				</clipPath>
				<path clip-path="url(#SVGID_21_)" d="M193.322,240.334c-0.291-3.349-0.514-6.227-0.565-7.659l-5.894-0.54
					C186.863,232.135,190.081,236.081,193.322,240.334"/>
			</g>
		</g>
		<path clip-path="url(#SVGID_9_)" fill="#FFFFFF" d="M103.266,70.502c0,0-4.849,7.752-0.849,10.168
			c4,2.417,6.666-5.606,6.666-5.606l2.89-0.429l-2.191-2.65l-3.673-3.065L103.266,70.502z"/>
		<path clip-path="url(#SVGID_9_)" fill="none" stroke="#000000" stroke-width="0.5" stroke-miterlimit="10" d="M103.266,70.502
			c0,0-4.849,7.752-0.849,10.168c4,2.417,6.666-5.606,6.666-5.606l2.89-0.429l-2.191-2.65l-3.673-3.065L103.266,70.502z"/>
		<path clip-path="url(#SVGID_9_)" fill="#33328C" d="M151,13.004c-0.803-0.077,3.082-2.325,2.25-2.374
			c-1.303-0.077-22.945,7.874-22.945,7.874s-15.47,6.045-27.039,51.998l6.516,1.483c0,0,7.513-26.481,21.29-40.308h30.271
			c0,0-0.622-2.313-1.51-4.96C174.46,35.504,184.5,58.754,184.5,58.754l6.119-1.25C177.237,16.254,151,13.004,151,13.004"/>
		<path clip-path="url(#SVGID_9_)" fill="none" stroke="#000000" stroke-width="0.5" stroke-miterlimit="10" d="M151,13.004
			c-0.803-0.077,3.082-2.325,2.25-2.374c-1.303-0.077-22.945,7.874-22.945,7.874s-15.47,6.045-27.039,51.998l6.516,1.483
			c0,0,7.513-26.481,21.29-40.308h30.271c0,0-0.622-2.313-1.51-4.96C174.46,35.504,184.5,58.754,184.5,58.754l6.119-1.25
			C177.237,16.254,151,13.004,151,13.004z"/>
		<path clip-path="url(#SVGID_9_)" fill="#FFFFFF" d="M125.25,13.481c0,0-1.879,2.171,0.436,6.513
			c2.314,4.342,10.522,6.566,13.266,4.261c2.535-2.13,3.182-6.585,1.372-9.717c0,0,0.097-3.452-1.372-4.877
			c-1.993-1.932-2.988,1.314-2.988,1.314S129.333,7.042,125.25,13.481"/>
		<path clip-path="url(#SVGID_9_)" fill="none" stroke="#000000" stroke-width="0.5" stroke-miterlimit="10" d="M125.25,13.481
			c0,0-1.879,2.171,0.436,6.513c2.314,4.342,10.522,6.566,13.266,4.261c2.535-2.13,3.182-6.585,1.372-9.717
			c0,0,0.097-3.452-1.372-4.877c-1.993-1.932-2.988,1.314-2.988,1.314S129.333,7.042,125.25,13.481z"/>
		<path clip-path="url(#SVGID_9_)" d="M134.488,1.129c0,0-3.948-2.54-8.802,0s-6.277,10.943-9.061,13.409
			c-2.783,2.466,1.25,6.404,6.375,4.216c3.542-1.512,6.179-6.049,8.375-7.375c2.196-1.326,4.59-0.404,4.59-0.404
			s1.176-1.26,2.293-0.553c1.117,0.707,2.066,4.116,2.066,4.116s-0.49,3.398,1.031,5.457c1.52,2.059,8.77,1.747,11.77-1.991
			c3.365-4.192,1.617-10.75-2-11.375c-2.999-0.519-5.25,1.25-7.375-1.5S137.482-1.996,134.488,1.129"/>
		<g opacity="0.3" clip-path="url(#SVGID_9_)">
			<g>
				<defs>
					<rect id="SVGID_22_" x="131.072" y="27.984" width="9.652" height="3.693"/>
				</defs>
				<clipPath id="SVGID_23_">
					<use xlink:href="#SVGID_22_"  overflow="visible"/>
				</clipPath>
				<polygon clip-path="url(#SVGID_23_)" points="135.32,27.984 131.071,31.677 140.724,31.677 				"/>
			</g>
		</g>
		<path clip-path="url(#SVGID_9_)" fill="#FFFFFF" d="M184.5,58.754l-1.046,2.45l1.817-0.342c0,0,0.312,8.475,3.979,7.475
			s1.369-10.833,1.369-10.833L184.5,58.754z"/>
		<path clip-path="url(#SVGID_9_)" fill="none" stroke="#000000" stroke-width="0.5" stroke-miterlimit="10" d="M184.5,58.754
			l-1.046,2.45l1.817-0.342c0,0,0.312,8.475,3.979,7.475s1.369-10.833,1.369-10.833L184.5,58.754z"/>
	</g>
</g>
</svg>
