<?xml version="1.0" encoding="utf-8"?>
<!-- Generator: Adobe Illustrator 16.0.0, SVG Export Plug-In . SVG Version: 6.00 Build 0)  -->
<!DOCTYPE svg PUBLIC "-//W3C//DTD SVG 1.1//EN" "http://www.w3.org/Graphics/SVG/1.1/DTD/svg11.dtd">
<svg version="1.1" id="Layer_1" xmlns="http://www.w3.org/2000/svg" xmlns:xlink="http://www.w3.org/1999/xlink" x="0px" y="0px"
	 width="237.801px" height="52.292px" viewBox="0 0 237.801 52.292" enable-background="new 0 0 237.801 52.292"
	 xml:space="preserve">
<g>
	<defs>
		<path id="SVGID_1_" d="M36.656,39.099c-3.543-3.543-5.315-7.906-5.315-12.97c0-5.061,1.708-9.426,5.125-12.969
			c3.416-3.543,7.718-5.314,12.843-5.314c4.998,0,9.299,1.771,12.843,5.314c3.605,3.543,5.314,7.845,5.314,13.095
			c-0.001,5.252-1.709,9.49-5.251,12.97c-3.543,3.48-7.782,5.188-12.906,5.188C44.247,44.412,40.135,42.641,36.656,39.099 M17.921,0
			c-0.752,0-1.028,0.001-0.748,0.001h-0.001c-1.153,0-2.091,0.896-2.091,2.008c-0.002,1.111,0.934,2.008,2.09,2.008
			c3.428,0.004-3.215,0.004,0.32,0.004h10.208c1.127,0.033,2.032,0.917,2.032,2.011c0,1.107-0.939,2.006-2.098,2.006
			c0,0-15.867,0.003-20.158,0H7.474c-1.156,0-2.092,0.901-2.092,2.009c-0.001,1.111,0.935,2.013,2.089,2.015
			c1.609,0.002,14.852,0.004,16.474,0.004c1.135,0.021,2.039,0.91,2.039,2.001c0,0.084-0.015,0.165-0.026,0.246
			c-0.176,0.357-0.337,0.715-0.497,1.073c-0.383,0.421-0.94,0.694-1.567,0.694c0,0-5.318,0.004-11.966,0h-0.003
			c-1.153,0-2.088,0.897-2.089,2.011c0,1.108,0.932,2.006,2.089,2.007c4.066,0.001,8.465,0.003,8.79,0.003
			c1.128,0.034,2.032,0.917,2.032,2.01c0,1.107-0.94,2.008-2.098,2.008c0,0-13.016,0.002-18.552,0C0.938,24.119,0,25.018,0,26.125
			c-0.001,1.108,0.936,2.012,2.096,2.013c1.815,0.001,14.516,0.002,16.316,0.004c1.137,0.023,2.043,0.912,2.043,2.006
			c0,1.111-0.936,2.011-2.092,2.011c0,0,3.345,0.004-3.385,0h-0.002c-1.156,0-2.097,0.896-2.098,2.007
			c0,1.113,0.939,2.01,2.097,2.01c0.553,0,6.927,0.001,7.489,0.001c1.144,0.011,2.069,0.907,2.069,2.013
			c0,1.108-0.935,2.004-2.09,2.004c0,0-5.403,0.005-12.746,0H9.696c-1.154,0-2.091,0.903-2.092,2.011
			c0,1.11,0.935,2.015,2.091,2.016h17.462c1.151,0.009,2.073,0.904,2.073,2.004c0,1.108-0.934,2.012-2.092,2.012
			c0,0-4.065,0.005-10.569,0c-1.156,0-2.09,0.896-2.09,2.007c-0.002,1.112,0.933,2.011,2.089,2.012
			c3.42,0.002,9.708,0.003,13.072,0.003h19.766h0.032c4.681,0,9.111-1.139,13.158-3.478c4.049-2.343,7.276-5.568,9.554-9.555
			c2.277-4.049,3.479-8.478,3.479-13.159c-0.002-4.744-1.205-9.173-3.546-13.158c-2.341-3.985-5.567-7.149-9.615-9.427
			c-4.013-2.222-8.388-3.412-13.065-3.469V0.003h-0.252c-0.032,0-0.064-0.002-0.095-0.002c-0.033,0-0.064,0.002-0.096,0.002
			C34.939,0.002,22.865,0,18.656,0H17.921z"/>
	</defs>
	<clipPath id="SVGID_2_">
		<use xlink:href="#SVGID_1_"  overflow="visible"/>
	</clipPath>
	
		<linearGradient id="SVGID_3_" gradientUnits="userSpaceOnUse" x1="-4.882812e-04" y1="52.292" x2="0.9995" y2="52.292" gradientTransform="matrix(75.629 0 0 -75.629 0 3980.897)">
		<stop  offset="0" style="stop-color:#B2409F"/>
		<stop  offset="0.1047" style="stop-color:#A23B97"/>
		<stop  offset="0.3331" style="stop-color:#85328A"/>
		<stop  offset="0.5604" style="stop-color:#722B80"/>
		<stop  offset="0.7841" style="stop-color:#65277B"/>
		<stop  offset="1" style="stop-color:#612679"/>
	</linearGradient>
	<rect x="-0.001" clip-path="url(#SVGID_2_)" fill="url(#SVGID_3_)" width="75.63" height="52.256"/>
</g>
<g>
	<defs>
		<path id="SVGID_4_" d="M40.505,17.042c-2.377,2.465-3.567,5.503-3.567,9.024s1.233,6.557,3.698,9.023
			c2.42,2.465,5.282,3.697,8.803,3.697c3.566,0,6.514-1.188,8.98-3.609c2.465-2.421,3.653-5.369,3.653-9.023
			c0-3.653-1.188-6.646-3.698-9.112c-2.465-2.465-5.459-3.697-8.935-3.697C45.874,13.345,42.881,14.577,40.505,17.042"/>
	</defs>
	<clipPath id="SVGID_5_">
		<use xlink:href="#SVGID_4_"  overflow="visible"/>
	</clipPath>
	
		<linearGradient id="SVGID_6_" gradientUnits="userSpaceOnUse" x1="0" y1="52.292" x2="1" y2="52.292" gradientTransform="matrix(75.63 0 0 -75.63 0 3980.886)">
		<stop  offset="0" style="stop-color:#B2409F"/>
		<stop  offset="0.1047" style="stop-color:#A23B97"/>
		<stop  offset="0.3331" style="stop-color:#85328A"/>
		<stop  offset="0.5604" style="stop-color:#722B80"/>
		<stop  offset="0.7841" style="stop-color:#65277B"/>
		<stop  offset="1" style="stop-color:#612679"/>
	</linearGradient>
	<rect x="36.938" y="13.345" clip-path="url(#SVGID_5_)" fill="url(#SVGID_6_)" width="25.134" height="25.441"/>
</g>
<g>
	<defs>
		<path id="SVGID_7_" d="M95.909,19.023c-1.882,1.951-2.822,4.353-2.822,7.14s0.975,5.19,2.926,7.143
			c1.916,1.951,4.18,2.926,6.968,2.926c2.821,0,5.156-0.94,7.106-2.856c1.951-1.916,2.892-4.25,2.892-7.142
			c0-2.891-0.941-5.261-2.926-7.21c-1.951-1.952-4.32-2.927-7.072-2.927C100.159,16.096,97.79,17.071,95.909,19.023"/>
	</defs>
	<clipPath id="SVGID_8_">
		<use xlink:href="#SVGID_7_"  overflow="visible"/>
	</clipPath>
	
		<linearGradient id="SVGID_9_" gradientUnits="userSpaceOnUse" x1="0" y1="52.292" x2="1" y2="52.292" gradientTransform="matrix(155.688 0 0 -155.688 82.125 8167.4019)">
		<stop  offset="0" style="stop-color:#612679"/>
		<stop  offset="0.1" style="stop-color:#5E277A"/>
		<stop  offset="0.3539" style="stop-color:#4B2C81"/>
		<stop  offset="0.7539" style="stop-color:#33328C"/>
		<stop  offset="1" style="stop-color:#2A3490"/>
	</linearGradient>
	<rect x="93.087" y="16.096" clip-path="url(#SVGID_8_)" fill="url(#SVGID_9_)" width="19.892" height="20.135"/>
</g>
<g>
	<defs>
		<path id="SVGID_10_" d="M136.041,12.403h15.886v4.319h-5.713v23.167h-4.424V16.722h-5.749V12.403z M129.352,35.222
			c0.732-0.663,1.08-1.394,1.08-2.265c0-0.906-0.312-1.742-0.939-2.578c-0.697-0.94-1.985-2.09-3.693-3.344
			c-1.951-1.497-3.134-2.474-3.832-3.205c-0.731-0.766-1.254-1.567-1.637-2.509c-0.348-0.836-0.523-1.741-0.523-2.682
			c0-1.881,0.698-3.519,2.021-4.843c1.357-1.358,3.064-2.02,5.121-2.02c1.638,0,3.029,0.418,4.215,1.254
			c1.184,0.871,2.334,2.055,3.38,3.519l0.348,0.522l-3.554,2.718l-0.384-0.522c-0.87-1.186-1.671-2.022-2.263-2.44
			c-0.523-0.383-1.185-0.557-1.951-0.557c-0.732,0-1.324,0.209-1.812,0.697c-0.453,0.452-0.695,1.011-0.695,1.707
			c0,0.731,0.208,1.358,0.695,1.881c0.383,0.419,1.395,1.358,3.867,3.17c2.09,1.567,3.658,3.03,4.598,4.355
			c1.047,1.464,1.533,2.996,1.533,4.598c0,2.125-0.801,3.973-2.402,5.506c-1.604,1.531-3.484,2.299-5.645,2.299
			c-3.727,0-6.688-2.057-8.744-6.166l-0.279-0.559l3.729-2.125l0.312,0.593c1.463,2.718,2.995,4.007,4.668,4.007
			C127.645,36.232,128.551,35.918,129.352,35.222 M95.804,38.635c-2.195-1.253-4.006-2.996-5.295-5.226
			c-1.289-2.229-1.916-4.667-1.916-7.246c0-2.577,0.627-4.946,1.916-7.246c1.254-2.23,2.996-4.007,5.225-5.26
			c2.16-1.255,4.564-1.882,7.107-1.882c2.648,0,5.12,0.662,7.386,1.916c2.229,1.255,4.005,2.996,5.295,5.191
			c1.289,2.195,1.951,4.633,1.951,7.247c0,2.578-0.662,5.017-1.916,7.245c-1.254,2.196-3.031,3.973-5.26,5.261
			c-2.23,1.289-4.669,1.917-7.247,1.917C100.508,40.552,98.068,39.889,95.804,38.635 M158.442,2.021h77.374V50.34h-77.374V2.021z
			 M158.442,0.035h-2.021H82.113v52.257h74.308h2.021h79.358V0.035H158.442z"/>
	</defs>
	<clipPath id="SVGID_11_">
		<use xlink:href="#SVGID_10_"  overflow="visible"/>
	</clipPath>
	
		<linearGradient id="SVGID_12_" gradientUnits="userSpaceOnUse" x1="4.882812e-04" y1="52.292" x2="1.0005" y2="52.292" gradientTransform="matrix(155.688 0 0 -155.688 82.125 8167.4019)">
		<stop  offset="0" style="stop-color:#612679"/>
		<stop  offset="0.1" style="stop-color:#5E277A"/>
		<stop  offset="0.3539" style="stop-color:#4B2C81"/>
		<stop  offset="0.7539" style="stop-color:#33328C"/>
		<stop  offset="1" style="stop-color:#2A3490"/>
	</linearGradient>
	<rect x="82.113" y="0.035" clip-path="url(#SVGID_11_)" fill="url(#SVGID_12_)" width="155.688" height="52.257"/>
</g>
<g>
	<defs>
		<rect id="SVGID_13_" width="237.801" height="52.292"/>
	</defs>
	<clipPath id="SVGID_14_">
		<use xlink:href="#SVGID_13_"  overflow="visible"/>
	</clipPath>
	<path clip-path="url(#SVGID_14_)" fill="#FFFFFF" d="M110.227,13.691c-2.265-1.254-4.738-1.916-7.386-1.916
		c-2.543,0-4.947,0.627-7.107,1.881c-2.229,1.254-3.971,3.031-5.225,5.261c-1.289,2.299-1.916,4.668-1.916,7.246
		c0,2.578,0.627,5.018,1.916,7.246c1.289,2.23,3.1,3.972,5.295,5.227c2.265,1.254,4.703,1.916,7.246,1.916
		c2.578,0,5.017-0.628,7.247-1.916c2.229-1.289,4.006-3.066,5.26-5.262c1.254-2.229,1.916-4.668,1.916-7.246
		c0-2.613-0.662-5.051-1.951-7.246C114.233,16.688,112.456,14.945,110.227,13.691 M110.087,33.375
		c-1.95,1.916-4.285,2.856-7.106,2.856c-2.787,0-5.052-0.976-6.968-2.926c-1.951-1.951-2.926-4.355-2.926-7.143
		c0-2.787,0.94-5.19,2.822-7.141c1.881-1.951,4.25-2.927,7.072-2.927c2.752,0,5.121,0.976,7.072,2.927
		c1.985,1.95,2.926,4.319,2.926,7.211C112.979,29.125,112.038,31.459,110.087,33.375"/>
	<path clip-path="url(#SVGID_14_)" fill="#FFFFFF" d="M128.795,23.725c-2.473-1.812-3.483-2.752-3.867-3.17
		c-0.487-0.523-0.696-1.15-0.696-1.881c0-0.697,0.244-1.255,0.696-1.707c0.488-0.488,1.08-0.697,1.812-0.697
		c0.766,0,1.428,0.174,1.951,0.557c0.592,0.418,1.393,1.254,2.264,2.439l0.383,0.522l3.555-2.717l-0.35-0.523
		c-1.045-1.463-2.194-2.647-3.379-3.518c-1.185-0.836-2.578-1.254-4.215-1.254c-2.056,0-3.763,0.662-5.121,2.02
		c-1.324,1.324-2.021,2.962-2.021,4.843c0,0.94,0.174,1.846,0.522,2.682c0.383,0.941,0.905,1.742,1.637,2.508
		c0.697,0.732,1.882,1.708,3.832,3.206c1.707,1.254,2.996,2.403,3.693,3.344c0.627,0.836,0.94,1.673,0.94,2.578
		c0,0.871-0.349,1.603-1.08,2.265c-0.802,0.696-1.707,1.011-2.787,1.011c-1.672,0-3.205-1.289-4.668-4.007l-0.313-0.593
		l-3.728,2.125l0.279,0.559c2.056,4.11,5.017,6.166,8.744,6.166c2.16,0,4.041-0.768,5.645-2.299c1.602-1.533,2.402-3.38,2.402-5.505
		c0-1.603-0.486-3.136-1.531-4.599C132.453,26.755,130.885,25.292,128.795,23.725"/>
	<polygon clip-path="url(#SVGID_14_)" fill="#FFFFFF" points="136.041,16.722 141.789,16.722 141.789,39.889 146.214,39.889 
		146.214,16.722 151.928,16.722 151.928,12.403 136.041,12.403 	"/>
	<path clip-path="url(#SVGID_14_)" fill="#2A3490" d="M170.286,30.518h12.854l4.46,9.685h2.021l-12.75-28.636h-0.141l-13.028,28.636
		h2.16L170.286,30.518z M176.766,16.305l5.471,12.229h-11.01L176.766,16.305z"/>
	<path clip-path="url(#SVGID_14_)" fill="#2A3490" d="M194.324,26.93h2.438c3.379,0,5.608-0.14,6.863-0.384
		c1.254-0.279,2.229-0.662,3.065-1.289c0.802-0.522,1.429-1.254,1.847-2.229c0.453-0.941,0.662-2.021,0.662-3.206
		c0-1.149-0.244-2.194-0.697-3.205c-0.453-0.94-1.08-1.707-1.881-2.299c-0.767-0.592-1.638-1.01-2.648-1.289
		c-0.94-0.244-3.065-0.383-6.444-0.383h-5.191v27.486h1.986V26.93z M194.324,14.562h5.47c6.062,0,7.35,2.822,7.35,5.226
		c0,1.568-0.557,2.892-1.672,3.902c-1.045,0.975-2.856,1.463-5.573,1.463h-0.384h-5.19V14.562z"/>
	<path clip-path="url(#SVGID_14_)" fill="#2A3490" d="M214.913,26.93h2.438c3.38,0,5.608-0.14,6.864-0.384
		c1.254-0.279,2.229-0.662,3.064-1.289c0.802-0.522,1.395-1.254,1.847-2.229c0.453-0.941,0.662-2.021,0.662-3.206
		c0-1.149-0.244-2.194-0.696-3.205c-0.453-0.94-1.08-1.707-1.882-2.299c-0.767-0.592-1.638-1.01-2.647-1.289
		c-0.941-0.244-3.066-0.383-6.445-0.383h-5.19v27.486h1.985V26.93z M214.913,14.562h5.471c6.061,0,7.35,2.822,7.35,5.226
		c0,1.568-0.557,2.892-1.673,3.902c-1.079,0.975-2.892,1.463-5.573,1.463h-0.383h-5.191V14.562z"/>
</g>
</svg>
