<?xml version="1.0" encoding="utf-8"?>
<!-- Generator: Adobe Illustrator 16.0.0, SVG Export Plug-In . SVG Version: 6.00 Build 0)  -->
<!DOCTYPE svg PUBLIC "-//W3C//DTD SVG 1.1//EN" "http://www.w3.org/Graphics/SVG/1.1/DTD/svg11.dtd">
<svg version="1.1" id="Layer_1" xmlns="http://www.w3.org/2000/svg" xmlns:xlink="http://www.w3.org/1999/xlink" x="0px" y="0px"
	 width="856px" height="556.953px" viewBox="0 0 856 556.953" enable-background="new 0 0 856 556.953" xml:space="preserve">
<g>
	<defs>
		<rect id="SVGID_1_" width="856" height="556.953"/>
	</defs>
	<clipPath id="SVGID_2_">
		<use xlink:href="#SVGID_1_"  overflow="visible"/>
	</clipPath>
	<g clip-path="url(#SVGID_2_)">
		<defs>
			<rect id="SVGID_3_" width="856" height="556.953"/>
		</defs>
		<clipPath id="SVGID_4_">
			<use xlink:href="#SVGID_3_"  overflow="visible"/>
		</clipPath>
		
			<line clip-path="url(#SVGID_4_)" fill="none" stroke="#272525" stroke-width="2" stroke-miterlimit="10" x1="0" y1="555.953" x2="856" y2="555.953"/>
	</g>
	<polygon clip-path="url(#SVGID_2_)" fill="#272525" points="211.989,266.656 215.248,259.308 212.595,252.735 213.702,251.466 
		215.321,252.765 214.68,246.679 217.43,242.544 224.036,242.321 229.56,246.336 229.085,252.918 224.679,259.412 220.654,269.664 	
		"/>
	<polygon clip-path="url(#SVGID_2_)" fill="#272525" points="190.741,534.36 204.281,543.387 204.281,549.592 192.433,551.849 
		173.817,542.822 175.509,534.36 	"/>
	<g clip-path="url(#SVGID_2_)">
		<defs>
			<rect id="SVGID_5_" width="856" height="556.953"/>
		</defs>
		<clipPath id="SVGID_6_">
			<use xlink:href="#SVGID_5_"  overflow="visible"/>
		</clipPath>
		<path clip-path="url(#SVGID_6_)" fill="#FFFFFF" d="M142.046,309.146c-4.519,0.547-9.038,1.095-13.557,1.643
			c-0.833-3.533-1.383-12.134-1.644-15.755c-3.974-0.474-8.666-1.467-10.167-5.177c-0.473-1.169-0.54-2.456-0.601-3.715
			c-0.252-5.205-0.503-10.411-0.755-15.616c-0.087-1.8-0.167-3.656,0.445-5.351c1.073-2.975,4.029-4.832,6.953-6.038
			c7.461-3.078,16.294-3.283,23.445,0.458c1.904,0.996,3.714,2.3,4.861,4.116c1.768,2.801,1.702,6.34,1.578,9.649
			c-0.114,3.056-0.228,6.11-0.342,9.165c-0.132,3.514-0.549,7.568-3.469,9.525c-1.551,1.04-3.598,1.294-4.918,2.614
			C141.548,296.993,142.813,305.943,142.046,309.146"/>
		<path clip-path="url(#SVGID_6_)" fill="none" stroke="#272525" stroke-miterlimit="10" d="M142.046,309.146
			c-4.519,0.547-9.038,1.095-13.557,1.643c-0.833-3.533-1.383-12.134-1.644-15.755c-3.974-0.474-8.666-1.467-10.167-5.177
			c-0.473-1.169-0.54-2.456-0.601-3.715c-0.252-5.205-0.503-10.411-0.755-15.616c-0.087-1.8-0.167-3.656,0.445-5.351
			c1.073-2.975,4.029-4.832,6.953-6.038c7.461-3.078,16.294-3.283,23.445,0.458c1.904,0.996,3.714,2.3,4.861,4.116
			c1.768,2.801,1.702,6.34,1.578,9.649c-0.114,3.056-0.228,6.11-0.342,9.165c-0.132,3.514-0.549,7.568-3.469,9.525
			c-1.551,1.04-3.598,1.294-4.918,2.614C141.548,296.993,142.813,305.943,142.046,309.146z"/>
		<path clip-path="url(#SVGID_6_)" fill="#272525" d="M175.694,244.169c0.483-1.422,1.035-2.813,1.701-4.15
			c1.444-2.898,3.426-5.548,4.421-8.629c0.994-3.08,0.734-6.898-1.747-8.977c-1.601-1.342-3.794-1.702-5.878-1.842
			c-6.868-0.459-13.853,0.964-19.995,4.073c-5.849,2.962-10.816,6.814-17.579,5.874c-6.354-0.882-10.391,0.955-16.034,4.509
			c-6.106,3.847-14.887,6.392-20.146,11.073c-2.197,1.954-3.712,4.581-4.734,7.338c-3.542,9.55-1.006,21.064,6.222,28.243
			c1.622,1.609,3.443,3.007,5.321,4.309c3.887,2.696,8.566,6.055,13.151,6.352c-0.756-3.874-6.973-15.236-4.719-19.052
			c3.577-6.057,14.58-6.676,20.678-6.741c6.651-0.071,13.316,3.164,19.828,2.721c4.685-0.32,9.972-3.831,13.303-7.033
			C173.597,258.283,173.931,249.358,175.694,244.169"/>
		<polygon clip-path="url(#SVGID_6_)" fill="#272525" points="64.373,530.324 69.754,539.741 69.081,545.795 61.01,547.141 
			48.903,539.741 52.938,514.182 64.373,510.818 		"/>
		<path clip-path="url(#SVGID_6_)" fill="none" stroke="#272525" stroke-miterlimit="10" d="M135.672,448.264l72.644-33.632
			l18.834,24.215l-32.287,98.877l-21.524-2.69l6.054-59.191c0,0-18.161,15.47-50.447,14.125
			c-14.798-14.798-14.798-14.125-14.798-14.125L135.672,448.264z"/>
		<polygon clip-path="url(#SVGID_6_)" fill="none" stroke="#272525" stroke-miterlimit="10" points="545.207,44.137 
			165.033,169.922 394.332,225.542 		"/>
		<path clip-path="url(#SVGID_6_)" fill="none" stroke="#272525" stroke-miterlimit="10" d="M155.107,181.857l81.002,244.824
			L592.49,308.77c26.955-8.919,41.079-39.503,31.547-68.314L560.294,47.797L399.492,241.139L155.107,181.857z"/>
		<g opacity="0.2" clip-path="url(#SVGID_6_)">
			<g>
				<defs>
					<rect id="SVGID_7_" x="476.993" y="44.137" width="68.215" height="59.389"/>
				</defs>
				<clipPath id="SVGID_8_">
					<use xlink:href="#SVGID_7_"  overflow="visible"/>
				</clipPath>
				<path clip-path="url(#SVGID_8_)" fill="#231F20" d="M476.993,66.707c0.577,3.391,1.416,6.781,2.53,10.146
					c3.433,10.376,9.102,19.384,16.29,26.673l49.394-59.388L476.993,66.707z"/>
			</g>
		</g>
		<g opacity="0.2" clip-path="url(#SVGID_6_)">
			<g>
				<defs>
					<rect id="SVGID_9_" x="506.556" y="47.797" width="75.384" height="76.271"/>
				</defs>
				<clipPath id="SVGID_10_">
					<use xlink:href="#SVGID_9_"  overflow="visible"/>
				</clipPath>
				<path clip-path="url(#SVGID_10_)" fill="#231F20" d="M566.468,120.567c5.569-1.843,10.744-4.331,15.472-7.35l-21.646-65.42
					l-53.737,64.612C523.588,123.801,545.508,127.502,566.468,120.567"/>
			</g>
		</g>
		<path clip-path="url(#SVGID_6_)" fill="#452D84" d="M495.475,68.336c-9.02-27.26,5.768-56.671,33.028-65.69
			c27.26-9.02,56.671,5.768,65.69,33.028c9.019,27.26-5.769,56.671-33.028,65.69C533.904,110.384,504.493,95.597,495.475,68.336"/>
		<polygon clip-path="url(#SVGID_6_)" fill="#FFFFFF" points="547.583,75.426 536.799,42.831 529.641,45.199 526.528,35.794 
			544.157,29.961 558.054,71.962 		"/>
		<path clip-path="url(#SVGID_6_)" fill="#272525" d="M604.321,164.778l-3.6-4.662l-5.426-9.798l-7.454-2.572l-7.93,4.605
			c0,0,1.86,3.311,4.657,2.942c2.798-0.37,4.196-0.555,4.196-0.555l2.949,9.151c0,0,0.052,0.198,0.196,0.509l1.149,3.43
			c0,0,4.035,2.788,4.708,2.115c0.171-0.171,0.562-0.474,1.046-0.829c1.161,0.504,1.166,0.506,1.166,0.506L604.321,164.778z"/>
		<polygon clip-path="url(#SVGID_6_)" fill="#272525" points="784.356,537.162 786.117,544.856 772.488,556.073 763.032,550.14 
			768.967,540.684 782.596,529.467 		"/>
		<polygon clip-path="url(#SVGID_6_)" fill="none" stroke="#272525" stroke-miterlimit="10" points="727.5,355.453 757.5,359.453 
			752.741,431.114 784.595,534.498 770.029,541.043 705.439,421.442 697.979,383.353 697,362.953 		"/>
		<polygon clip-path="url(#SVGID_6_)" fill="none" stroke="#272525" stroke-miterlimit="10" points="650.5,371.453 651.797,398.51 
			679.387,526.87 693.954,525.898 695.178,405.68 697.5,362.453 		"/>
		<polygon clip-path="url(#SVGID_6_)" fill="#272525" points="694.28,532.047 679.053,540.975 670.651,533.623 678.002,525.222 
			693.755,524.171 		"/>
		<path clip-path="url(#SVGID_6_)" fill="#FFFFFF" d="M724.334,111.341c-8.934-19.006-38.647-22.43-42.6,1.381
			c-1.188,7.155-1.522,14.635,0.699,21.539c2.221,6.905,7.355,13.17,14.297,15.276c0.04,0.012,0.079,0.021,0.118,0.033
			c-0.037,1.865-0.075,3.731-0.111,5.597c-0.007,0.401-0.002,0.841,0.26,1.145c0.297,0.346,0.811,0.385,1.267,0.398
			c2.229,0.064,4.459,0.128,6.688,0.191c1.104,0.032,2.255,0.055,3.26-0.405c2.2-1.008,2.822-3.864,2.635-6.277
			c-0.045-0.577-0.12-1.156-0.2-1.736C723.077,142.486,730.174,123.766,724.334,111.341"/>
		<path clip-path="url(#SVGID_6_)" fill="none" stroke="#272525" stroke-miterlimit="10" d="M724.334,111.341
			c-8.934-19.006-38.647-22.43-42.6,1.381c-1.188,7.155-1.522,14.635,0.699,21.539c2.221,6.905,7.355,13.17,14.297,15.276
			c0.04,0.012,0.079,0.021,0.118,0.033c-0.037,1.865-0.075,3.731-0.111,5.597c-0.007,0.401-0.002,0.841,0.26,1.145
			c0.297,0.346,0.811,0.385,1.267,0.398c2.229,0.064,4.459,0.128,6.688,0.191c1.104,0.032,2.255,0.055,3.26-0.405
			c2.2-1.008,2.822-3.864,2.635-6.277c-0.045-0.577-0.12-1.156-0.2-1.736C723.077,142.486,730.174,123.766,724.334,111.341z"/>
		<path clip-path="url(#SVGID_6_)" fill="#272525" d="M691.329,79.395c-5.312-0.886-9.939,4.199-14.901,6.824
			c-4.129,2.184-8.774,2.699-13.045,4.494c-4.271,1.796-8.506,5.625-8.681,10.51c-4.255-2.311-8.866-4.686-13.694-3.844
			c-4.828,0.843-9.396,6.508-7.563,11.278c1.643,4.271,7.155,5.367,8.923,9.574c2.795,6.654-5.258,16.769,0.036,21.244
			c1.272,1.075,3.025,1.36,4.275,2.467c1.552,1.374,2.018,3.695,2.683,5.763c3.016,9.374,12.3,15.626,21.6,14.545
			c5.815-2.601,10.514-8.103,12.688-14.458c2.619-7.66-1.454-10.422-2.021-17.666c-0.62-7.917,2.041-16.243,7.126-22.293
			c3.309-3.937,8.003-7.297,12.907-7.678c1.994-0.155,1.339,1.495,3.605-0.006c0.973-0.644,2.328-3.12,2.622-4.314
			C702.606,91.432,698.318,80.562,691.329,79.395"/>
		<polygon clip-path="url(#SVGID_6_)" fill="#272525" points="613.699,99.494 608.411,85.896 614.124,83.384 619.807,91.893 
			621.957,89.451 625.064,101.637 619.479,105.052 		"/>
		<path clip-path="url(#SVGID_6_)" fill="none" stroke="#272525" stroke-miterlimit="10" d="M770.562,292.617
			c-11.171-28.284-13.302-60.984-18.284-90.747c-1.744-10.394-3.563-21.015-8.491-30.246c-5.657-10.599-14.021-15.762-23.477-18.191
			c-1.215-0.313-2.44-0.563-3.668-0.787c-6.017-1.577-13.319-1.188-20.738-1.389c-4.038-0.378-9.396-1.174-12.688-0.386
			c-6.498-0.199-12.996-0.398-19.494-0.597l-38.324-53.117l-10.738,7.342l31.349,72.742c5.196,1.335,10.392,2.672,15.587,4.008
			l-18.729,17.868c0,0-0.128,0.06-0.358,0.17l-40.071-38.965l-9.061,8.858l41.564,63.262c0.03,0.047,0.061,0.099,0.085,0.149
			c0.351,0.7,1.193,0.997,1.906,0.672l13.922-6.344c-2.574,10.383-4.813,20.862-7.036,31.322
			c-4.324,20.239-8.584,40.491-12.845,60.744c-1.298,6.168-15.706,48.228-13.556,51.19c9.869,13.601,97.036-13.368,110.256-14.492
			c14.743-1.253,29.867,2.499,42.314,10.5c-0.066-0.043,8.949-35.99,9.167-39.854C779.948,312.173,775.418,304.911,770.562,292.617z
			"/>
		<path clip-path="url(#SVGID_6_)" fill="#272525" d="M748.755,90.661c2.734,0.813,5.72,0.754,8.317,1.948
			c3.901,1.794,3.591,5.87,4.641,9.435c1.163,3.947,2.861,9.247,5.396,12.346c1.827,2.232,4.416,3.533,6.658,5.271
			c2.243,1.737,4.287,4.28,4.186,7.338c-0.097,2.899-2.094,5.467-2.429,8.357c-0.424,4.31,0.283,6.534-1.125,10.922
			c-0.728,2.264-1.539,4.661-3.274,6.184c-2.288,2.006-5.494,1.909-8.303,1.389c-2.808-0.521-5.705-1.354-8.499-0.468
			c-6.059,1.919-5.042,8.031-6.736,13.108c-2.577,7.726-11.666,12.102-18.51,9.217c-5.802-2.446-9.064-9.292-8.682-15.985
			c0.191-3.351,1.582-6.453,1.738-9.808c0.15-3.235-1.595-7.751,1.385-10.268c0.726-0.613,1.647-0.927,2.301-1.629
			c0.531-0.566,0.832-1.335,1.026-2.103c0.672-2.665,0.135-5.593-1.406-7.67c-1.107-1.492-2.713-2.596-3.376-4.385
			c-0.76-2.049-0.088-4.418,0.087-6.664c0.422-5.431-2.458-10.816-6.95-12.995c-2.959-1.436-5.634-2.3-8.205-4.451
			c-0.392-0.327-6.234-5.676-6.407-4.547c0.302-1.967,1.483-3.673,2.678-5.235c1.964-2.568,4.138-5.065,6.868-6.576
			c8.825-4.885,9.04,6.835,16.079,5.418c1.698-0.341,3-1.87,4.538-2.768c2.907-1.697,6.429-1.01,9.347,0.352
			C743.015,87.756,745.675,89.744,748.755,90.661"/>
		<polygon clip-path="url(#SVGID_6_)" fill="#272525" points="217.506,390.822 225.224,393.069 231.383,389.562 232.789,390.489 
			231.717,392.267 237.663,390.818 242.13,392.991 243.233,399.508 239.993,405.519 233.407,405.927 226.381,402.43 
			215.684,399.812 		"/>
		<path clip-path="url(#SVGID_6_)" fill="#FFFFFF" d="M64.5,457.453c0,0-7.526,10.989,9.963,25.787
			c17.488,14.798,47.756,38.34,47.756,38.34l-57.173-12.779l-4.036,20.179c0,0,86.769,28.923,88.787,26.905
			c2.018-2.019,23.542-20.852,23.542-20.852l-50.839-92.58l-51,16L64.5,457.453z"/>
		<path clip-path="url(#SVGID_6_)" fill="none" stroke="#272525" stroke-miterlimit="10" d="M64.5,457.453
			c0,0-7.526,10.989,9.963,25.787c17.488,14.798,47.756,38.34,47.756,38.34l-57.173-12.779l-4.036,20.179
			c0,0,86.769,28.923,88.787,26.905c2.018-2.019,23.542-20.852,23.542-20.852l-50.839-92.58l-51,16L64.5,457.453z"/>
		<path clip-path="url(#SVGID_6_)" fill="#FFFFFF" d="M225.236,389.663l-44.759-21.242c-0.012-2.863,0.059-5.728,0.191-8.583
			c0.165-3.533,0.422-7.06,0.721-10.581c0.121-1.414,1.118-5.433,1.315-8.225l16.99,1.715l29.086-80.441l-15.54-2.068
			l-24.603,42.748l-34.695,6.057c-0.513-0.076-1.039-0.145-1.582-0.203c-40.707-4.394-38.399-1.918-52.239,14.906
			c-5.566,6.765-15.845,26.176-19.398,34.098c-4.303,9.594-8.491,19.24-12.355,29.014c-4.313,10.906-8.23,21.973-11.444,33.246
			c-0.358,1.252-1.499,4.724-2.719,8.92c-2.306,7.933-4.893,18.453-3.011,21.494c0.979,2.536,3.563,5.239,9.816,6.49
			c13.453,2.69,24.214,2.69,39.012-4.708c14.798-7.399,39.313-2.147,39.313-2.147v-0.001c3.896,1.067,7.97,2.121,12.308,3.088
			c31.539,7.035,47.84-12.281,52.954-15.788c4.473-3.067,1.008-7.346,1.008-7.346l-0.001-0.008
			c-4.195-4.489-8.089-9.232-11.475-14.298c-4.836-7.235-8.364-15.005-10.607-23.125l41.742,12.665L225.236,389.663z"/>
		<path clip-path="url(#SVGID_6_)" fill="none" stroke="#272525" stroke-miterlimit="10" d="M225.236,389.663l-44.759-21.242
			c-0.012-2.863,0.059-5.728,0.191-8.583c0.165-3.533,0.422-7.06,0.721-10.581c0.121-1.414,1.118-5.433,1.315-8.225l16.99,1.715
			l29.086-80.441l-15.54-2.068l-24.603,42.748l-34.695,6.057c-0.513-0.076-1.039-0.145-1.582-0.203
			c-40.707-4.394-38.399-1.918-52.239,14.906c-5.566,6.765-15.845,26.176-19.398,34.098c-4.303,9.594-8.491,19.24-12.355,29.014
			c-4.313,10.906-8.23,21.973-11.444,33.246c-0.358,1.252-1.499,4.724-2.719,8.92c-2.306,7.933-4.893,18.453-3.011,21.494
			c0.979,2.536,3.563,5.239,9.816,6.49c13.453,2.69,24.214,2.69,39.012-4.708c14.798-7.399,39.313-2.147,39.313-2.147v-0.001
			c3.896,1.067,7.97,2.121,12.308,3.088c31.539,7.035,47.84-12.281,52.954-15.788c4.473-3.067,1.008-7.346,1.008-7.346l-0.001-0.008
			c-4.195-4.489-8.089-9.232-11.475-14.298c-4.836-7.235-8.364-15.005-10.607-23.125l41.742,12.665L225.236,389.663z"/>
	</g>
</g>
</svg>
